G04*
G04 #@! TF.GenerationSoftware,Altium Limited,Altium Designer,20.1.7 (139)*
G04*
G04 Layer_Color=32896*
%FSLAX23Y23*%
%MOIN*%
G70*
G04*
G04 #@! TF.SameCoordinates,7C998F9C-D2B3-43E1-8EDA-AE96681A2DE1*
G04*
G04*
G04 #@! TF.FilePolarity,Positive*
G04*
G01*
G75*
%ADD10C,0.010*%
%ADD11C,0.007*%
%ADD13C,0.008*%
%ADD17C,0.004*%
D10*
X2509Y563D02*
G03*
X2509Y563I-5J0D01*
G01*
X1840Y745D02*
G03*
X1840Y745I-5J0D01*
G01*
D11*
X2394Y932D02*
Y957D01*
X2340Y932D02*
X2394D01*
X2340D02*
Y957D01*
Y1025D02*
Y1051D01*
X2394D01*
Y1025D02*
Y1051D01*
D13*
X2405Y599D02*
Y662D01*
X2488Y599D02*
Y662D01*
X2405D02*
X2488D01*
X2405Y599D02*
X2488D01*
X2498Y900D02*
X2514D01*
X2498Y872D02*
X2514D01*
X2124Y1293D02*
X2242D01*
X2045Y908D02*
X2242D01*
X1724Y617D02*
X1780D01*
X1724Y739D02*
X1780D01*
X1724Y617D02*
Y739D01*
X1780Y617D02*
Y739D01*
X1956Y697D02*
X1972D01*
X1956Y669D02*
X1972D01*
X1955Y634D02*
X1971D01*
X1955Y606D02*
X1971D01*
X1912Y753D02*
X1928D01*
X1912Y725D02*
X1928D01*
X1674Y776D02*
Y792D01*
X1646Y776D02*
Y792D01*
X1505Y690D02*
Y706D01*
X1533Y690D02*
Y706D01*
X1562Y689D02*
Y704D01*
X1590Y689D02*
Y704D01*
X2609Y872D02*
X2625D01*
X2609Y900D02*
X2625D01*
X2609Y931D02*
X2624D01*
X2609Y959D02*
X2624D01*
X2753Y1017D02*
X2769D01*
X2753Y989D02*
X2769D01*
X1508Y385D02*
Y401D01*
X1480Y385D02*
Y401D01*
X1349Y387D02*
Y402D01*
X1321Y387D02*
Y402D01*
X1200Y388D02*
Y404D01*
X1172Y388D02*
Y404D01*
D17*
X2438Y795D02*
X2436Y797D01*
Y802D01*
X2438Y805D01*
X2448D01*
X2451Y802D01*
Y797D01*
X2448Y795D01*
X2451Y790D02*
Y785D01*
Y787D01*
X2436D01*
X2438Y790D01*
X2436Y767D02*
X2438Y772D01*
X2443Y777D01*
X2448D01*
X2451Y775D01*
Y770D01*
X2448Y767D01*
X2446D01*
X2443Y770D01*
Y777D01*
X2523Y621D02*
X2510D01*
X2508Y623D01*
Y628D01*
X2510Y631D01*
X2523D01*
Y636D02*
Y646D01*
X2520D01*
X2510Y636D01*
X2508D01*
X92Y1287D02*
Y1273D01*
X85D01*
X82Y1275D01*
Y1278D01*
X85Y1280D01*
X92D01*
X85D01*
X82Y1282D01*
Y1285D01*
X85Y1287D01*
X92D01*
X77D02*
X68D01*
X73D01*
Y1273D01*
X63D02*
X58D01*
X60D01*
Y1287D01*
X63Y1285D01*
X1770Y766D02*
Y754D01*
X1768Y752D01*
X1763D01*
X1760Y754D01*
Y766D01*
X1746D02*
X1756D01*
Y759D01*
X1751Y761D01*
X1748D01*
X1746Y759D01*
Y754D01*
X1748Y752D01*
X1753D01*
X1756Y754D01*
X2060Y891D02*
Y879D01*
X2057Y877D01*
X2052D01*
X2050Y879D01*
Y891D01*
X2045Y877D02*
X2040D01*
X2043D01*
Y891D01*
X2045Y889D01*
X1965Y771D02*
Y785D01*
X1957D01*
X1955Y783D01*
Y778D01*
X1957Y776D01*
X1965D01*
X1960D02*
X1955Y771D01*
X1940D02*
X1950D01*
X1940Y780D01*
Y783D01*
X1943Y785D01*
X1947D01*
X1950Y783D01*
X1925Y785D02*
X1935D01*
Y778D01*
X1930Y780D01*
X1928D01*
X1925Y778D01*
Y773D01*
X1928Y771D01*
X1933D01*
X1935Y773D01*
X1595Y626D02*
Y640D01*
X1587D01*
X1585Y638D01*
Y633D01*
X1587Y631D01*
X1595D01*
X1590D02*
X1585Y626D01*
X1570D02*
X1580D01*
X1570Y635D01*
Y638D01*
X1573Y640D01*
X1577D01*
X1580Y638D01*
X1558Y626D02*
Y640D01*
X1565Y633D01*
X1555D01*
X1538Y626D02*
Y641D01*
X1530D01*
X1528Y639D01*
Y634D01*
X1530Y631D01*
X1538D01*
X1533D02*
X1528Y626D01*
X1513D02*
X1523D01*
X1513Y636D01*
Y639D01*
X1516Y641D01*
X1520D01*
X1523Y639D01*
X1508D02*
X1506Y641D01*
X1501D01*
X1498Y639D01*
Y636D01*
X1501Y634D01*
X1503D01*
X1501D01*
X1498Y631D01*
Y629D01*
X1501Y626D01*
X1506D01*
X1508Y629D01*
X1721Y819D02*
Y833D01*
X1713D01*
X1711Y831D01*
Y826D01*
X1713Y824D01*
X1721D01*
X1716D02*
X1711Y819D01*
X1696D02*
X1706D01*
X1696Y828D01*
Y831D01*
X1699Y833D01*
X1703D01*
X1706Y831D01*
X1681Y819D02*
X1691D01*
X1681Y828D01*
Y831D01*
X1684Y833D01*
X1689D01*
X1691Y831D01*
X1514Y466D02*
Y481D01*
X1507D01*
X1504Y478D01*
Y473D01*
X1507Y471D01*
X1514D01*
X1509D02*
X1504Y466D01*
X1499D02*
X1494D01*
X1497D01*
Y481D01*
X1499Y478D01*
X1477Y466D02*
X1487D01*
X1477Y476D01*
Y478D01*
X1479Y481D01*
X1484D01*
X1487Y478D01*
X1355Y468D02*
Y483D01*
X1348D01*
X1345Y480D01*
Y475D01*
X1348Y473D01*
X1355D01*
X1350D02*
X1345Y468D01*
X1340D02*
X1335D01*
X1338D01*
Y483D01*
X1340Y480D01*
X1328Y468D02*
X1323D01*
X1325D01*
Y483D01*
X1328Y480D01*
X1206Y469D02*
Y484D01*
X1199D01*
X1196Y481D01*
Y476D01*
X1199Y474D01*
X1206D01*
X1201D02*
X1196Y469D01*
X1191D02*
X1186D01*
X1189D01*
Y484D01*
X1191Y481D01*
X1179D02*
X1176Y484D01*
X1171D01*
X1169Y481D01*
Y471D01*
X1171Y469D01*
X1176D01*
X1179Y471D01*
Y481D01*
X2655Y976D02*
Y990D01*
X2648D01*
X2645Y988D01*
Y983D01*
X2648Y981D01*
X2655D01*
X2650D02*
X2645Y976D01*
X2641Y990D02*
X2631D01*
Y988D01*
X2641Y978D01*
Y976D01*
X1998Y571D02*
Y585D01*
X1991D01*
X1988Y583D01*
Y578D01*
X1991Y576D01*
X1998D01*
X1993D02*
X1988Y571D01*
X1974Y585D02*
X1979Y583D01*
X1984Y578D01*
Y573D01*
X1981Y571D01*
X1976D01*
X1974Y573D01*
Y576D01*
X1976Y578D01*
X1984D01*
X2804Y1038D02*
Y1052D01*
X2797D01*
X2794Y1050D01*
Y1045D01*
X2797Y1043D01*
X2804D01*
X2799D02*
X2794Y1038D01*
X2780Y1052D02*
X2790D01*
Y1045D01*
X2785Y1047D01*
X2782D01*
X2780Y1045D01*
Y1040D01*
X2782Y1038D01*
X2787D01*
X2790Y1040D01*
X2546Y840D02*
Y855D01*
X2539D01*
X2536Y853D01*
Y848D01*
X2539Y845D01*
X2546D01*
X2541D02*
X2536Y840D01*
X2524D02*
Y855D01*
X2531Y848D01*
X2521D01*
X2660Y843D02*
Y857D01*
X2653D01*
X2650Y855D01*
Y850D01*
X2653Y848D01*
X2660D01*
X2655D02*
X2650Y843D01*
X2646Y855D02*
X2643Y857D01*
X2638D01*
X2636Y855D01*
Y852D01*
X2638Y850D01*
X2641D01*
X2638D01*
X2636Y848D01*
Y845D01*
X2638Y843D01*
X2643D01*
X2646Y845D01*
X2005Y717D02*
Y731D01*
X1998D01*
X1995Y729D01*
Y724D01*
X1998Y722D01*
X2005D01*
X2000D02*
X1995Y717D01*
X1981D02*
X1991D01*
X1981Y726D01*
Y729D01*
X1983Y731D01*
X1988D01*
X1991Y729D01*
X1637Y584D02*
X1639Y586D01*
X1644D01*
X1647Y584D01*
Y574D01*
X1644Y572D01*
X1639D01*
X1637Y574D01*
X1632Y572D02*
X1627D01*
X1629D01*
Y586D01*
X1632Y584D01*
X1619D02*
X1617Y586D01*
X1612D01*
X1609Y584D01*
Y581D01*
X1612Y579D01*
X1614D01*
X1612D01*
X1609Y577D01*
Y574D01*
X1612Y572D01*
X1617D01*
X1619Y574D01*
X2539Y990D02*
X2542Y992D01*
X2547D01*
X2549Y990D01*
Y980D01*
X2547Y978D01*
X2542D01*
X2539Y980D01*
X2525Y992D02*
X2530Y990D01*
X2535Y985D01*
Y980D01*
X2532Y978D01*
X2527D01*
X2525Y980D01*
Y983D01*
X2527Y985D01*
X2535D01*
X2387Y911D02*
X2390Y913D01*
X2395D01*
X2397Y911D01*
Y901D01*
X2395Y899D01*
X2390D01*
X2387Y901D01*
X2373Y913D02*
X2383D01*
Y906D01*
X2378Y908D01*
X2375D01*
X2373Y906D01*
Y901D01*
X2375Y899D01*
X2380D01*
X2383Y901D01*
X2797Y905D02*
X2800Y907D01*
X2805D01*
X2807Y905D01*
Y895D01*
X2805Y893D01*
X2800D01*
X2797Y895D01*
X2785Y893D02*
Y907D01*
X2793Y900D01*
X2783D01*
X1931Y1162D02*
X1934Y1164D01*
X1939D01*
X1941Y1162D01*
Y1152D01*
X1939Y1150D01*
X1934D01*
X1931Y1152D01*
X1917Y1150D02*
X1927D01*
X1917Y1159D01*
Y1162D01*
X1919Y1164D01*
X1924D01*
X1927Y1162D01*
X1981Y1164D02*
X1983Y1166D01*
X1988D01*
X1991Y1164D01*
Y1154D01*
X1988Y1152D01*
X1983D01*
X1981Y1154D01*
X1976Y1152D02*
X1971D01*
X1974D01*
Y1166D01*
X1976Y1164D01*
M02*
