G04*
G04 #@! TF.GenerationSoftware,Altium Limited,Altium Designer,20.1.7 (139)*
G04*
G04 Layer_Color=65535*
%FSLAX23Y23*%
%MOIN*%
G70*
G04*
G04 #@! TF.SameCoordinates,7C998F9C-D2B3-43E1-8EDA-AE96681A2DE1*
G04*
G04*
G04 #@! TF.FilePolarity,Positive*
G04*
G01*
G75*
%ADD10C,0.010*%
%ADD11C,0.007*%
%ADD12C,0.007*%
%ADD13C,0.008*%
%ADD14C,0.016*%
%ADD15C,0.010*%
%ADD16C,0.005*%
%ADD17C,0.004*%
D10*
X2305Y554D02*
G03*
X2305Y554I-5J0D01*
G01*
X2794Y604D02*
G03*
X2794Y604I-5J0D01*
G01*
X465Y514D02*
G03*
X465Y514I-5J0D01*
G01*
X1854Y1249D02*
G03*
X1854Y1249I-5J0D01*
G01*
X1339D02*
G03*
X1339Y1249I-5J0D01*
G01*
X556Y932D02*
G03*
X556Y932I-5J0D01*
G01*
D11*
X2919Y1404D02*
G03*
X2919Y1404I-58J0D01*
G01*
X2783Y1406D02*
G03*
X2783Y1406I-58J0D01*
G01*
X1989Y1393D02*
G03*
X1989Y1393I-58J0D01*
G01*
X2344Y90D02*
G03*
X2344Y90I-58J0D01*
G01*
X758Y112D02*
G03*
X758Y112I-58J0D01*
G01*
X1796Y1187D02*
X1822D01*
Y1133D02*
Y1187D01*
X1796Y1133D02*
X1822D01*
X1703D02*
X1728D01*
X1703D02*
Y1187D01*
X1728D01*
X316Y566D02*
X342D01*
X316Y512D02*
Y566D01*
Y512D02*
X342D01*
X410D02*
X436D01*
Y566D01*
X410D02*
X436D01*
X1407Y1312D02*
Y1338D01*
X1353D02*
X1407D01*
X1353Y1312D02*
Y1338D01*
Y1219D02*
Y1244D01*
Y1219D02*
X1407D01*
Y1244D01*
D12*
X2852Y666D02*
X2922D01*
X2852Y744D02*
X2922D01*
D13*
X2872Y833D02*
X2904D01*
X2872Y774D02*
X2904D01*
X2627Y561D02*
Y574D01*
X2648Y508D02*
X2683D01*
Y598D02*
Y627D01*
Y508D02*
Y537D01*
X2648Y627D02*
X2683D01*
X2640Y773D02*
X2675D01*
Y653D02*
Y682D01*
Y744D02*
Y773D01*
X2640Y653D02*
X2675D01*
X2620Y706D02*
Y720D01*
X2507Y633D02*
Y649D01*
X2479Y633D02*
Y649D01*
X2432Y600D02*
Y691D01*
X2310Y600D02*
Y691D01*
X2432D01*
X2310Y600D02*
X2432D01*
X2861Y620D02*
X2883D01*
X2900Y575D02*
Y581D01*
X2861Y536D02*
X2883D01*
X2035Y1358D02*
Y1458D01*
X2635Y1358D02*
Y1458D01*
X2035Y1358D02*
X2635D01*
X2035Y1458D02*
X2635D01*
X1851Y1123D02*
Y1139D01*
X1879Y1123D02*
Y1139D01*
X2625Y836D02*
X2641D01*
X2625Y808D02*
X2641D01*
X2642Y378D02*
Y394D01*
X2614Y378D02*
Y394D01*
X2365Y363D02*
X2381D01*
X2365Y391D02*
X2381D01*
X2819Y402D02*
Y418D01*
X2791Y402D02*
Y418D01*
X2956Y1254D02*
X3056D01*
Y1054D02*
Y1254D01*
X2956Y1054D02*
X3056D01*
X2956D02*
Y1254D01*
X487Y502D02*
X507D01*
X487Y416D02*
X507D01*
X487D02*
Y502D01*
X507Y416D02*
Y502D01*
X364Y460D02*
X380D01*
X364Y488D02*
X380D01*
X364Y418D02*
X380D01*
X364Y390D02*
X380D01*
X1788Y1294D02*
Y1382D01*
X1552Y1294D02*
Y1381D01*
X1587Y1220D02*
X1753D01*
X1587Y1456D02*
X1753D01*
X1437Y1209D02*
Y1225D01*
X1465Y1209D02*
Y1225D01*
X1273Y1294D02*
Y1382D01*
X1037Y1294D02*
Y1381D01*
X1072Y1220D02*
X1238D01*
X1072Y1456D02*
X1238D01*
X1424Y198D02*
Y273D01*
X1558Y198D02*
Y273D01*
X1424D02*
X1558D01*
X1440Y52D02*
X1542D01*
X1424Y72D02*
Y139D01*
X1542Y52D02*
X1558Y72D01*
X1424D02*
X1440Y52D01*
X1558Y72D02*
Y139D01*
X1269Y198D02*
Y273D01*
X1403Y198D02*
Y273D01*
X1269D02*
X1403D01*
X1285Y52D02*
X1387D01*
X1269Y72D02*
Y139D01*
X1387Y52D02*
X1403Y72D01*
X1269D02*
X1285Y52D01*
X1403Y72D02*
Y139D01*
X1118Y198D02*
Y273D01*
X1251Y198D02*
Y273D01*
X1118D02*
X1251D01*
X1133Y52D02*
X1236D01*
X1118Y72D02*
Y139D01*
X1236Y52D02*
X1251Y72D01*
X1118D02*
X1133Y52D01*
X1251Y72D02*
Y139D01*
X423Y1078D02*
Y1116D01*
X525D01*
X423Y934D02*
Y972D01*
Y934D02*
X525D01*
D14*
X2782Y774D02*
Y833D01*
D15*
X2779Y678D02*
Y733D01*
X2079Y1201D02*
Y1261D01*
X2109D01*
X2119Y1251D01*
Y1231D01*
X2109Y1221D01*
X2079D01*
X2099D02*
X2119Y1201D01*
X2179Y1251D02*
X2169Y1261D01*
X2149D01*
X2139Y1251D01*
Y1241D01*
X2149Y1231D01*
X2169D01*
X2179Y1221D01*
Y1211D01*
X2169Y1201D01*
X2149D01*
X2139Y1211D01*
X2199Y1261D02*
X2239D01*
X2219D01*
Y1201D01*
X800Y1187D02*
Y1247D01*
X830D01*
X840Y1237D01*
Y1217D01*
X830Y1207D01*
X800D01*
X860Y1247D02*
Y1187D01*
X880Y1207D01*
X900Y1187D01*
Y1247D01*
X920Y1187D02*
Y1247D01*
X950D01*
X960Y1237D01*
Y1217D01*
X950Y1207D01*
X920D01*
X940D02*
X960Y1187D01*
X1175Y420D02*
X1165Y430D01*
X1145D01*
X1135Y420D01*
Y380D01*
X1145Y370D01*
X1165D01*
X1175Y380D01*
Y400D01*
X1155D01*
X1315Y430D02*
Y420D01*
X1335Y400D01*
X1355Y420D01*
Y430D01*
X1335Y400D02*
Y370D01*
X1495D02*
Y430D01*
X1525D01*
X1535Y420D01*
Y400D01*
X1525Y390D01*
X1495D01*
X1515D02*
X1535Y370D01*
D16*
X2919Y500D02*
Y513D01*
Y507D01*
X2939D01*
X2919Y533D02*
Y520D01*
X2939D01*
Y533D01*
X2929Y520D02*
Y527D01*
X2939Y540D02*
X2919D01*
X2926Y547D01*
X2919Y553D01*
X2939D01*
Y560D02*
X2919D01*
Y570D01*
X2922Y573D01*
X2929D01*
X2932Y570D01*
Y560D01*
X1667Y215D02*
Y240D01*
X1679D01*
X1684Y235D01*
Y227D01*
X1679Y223D01*
X1667D01*
X1692Y231D02*
Y219D01*
X1696Y215D01*
X1709D01*
Y231D01*
X1717Y215D02*
X1725D01*
X1721D01*
Y240D01*
X1717D01*
X1738Y215D02*
X1750D01*
X1754Y219D01*
X1750Y223D01*
X1742D01*
X1738Y227D01*
X1742Y231D01*
X1754D01*
X1775Y215D02*
X1767D01*
X1763Y219D01*
Y227D01*
X1767Y231D01*
X1775D01*
X1779Y227D01*
Y223D01*
X1763D01*
X1800Y240D02*
X1792D01*
X1788Y235D01*
Y219D01*
X1792Y215D01*
X1800D01*
X1804Y219D01*
Y235D01*
X1800Y240D01*
X1813Y231D02*
Y219D01*
X1817Y215D01*
X1829D01*
Y231D01*
X1842Y235D02*
Y231D01*
X1838D01*
X1846D01*
X1842D01*
Y219D01*
X1846Y215D01*
X1900Y235D02*
X1896Y240D01*
X1888D01*
X1884Y235D01*
Y219D01*
X1888Y215D01*
X1896D01*
X1900Y219D01*
X1921Y240D02*
X1913D01*
X1909Y235D01*
Y219D01*
X1913Y215D01*
X1921D01*
X1925Y219D01*
Y235D01*
X1921Y240D01*
X1934D02*
Y223D01*
X1942Y215D01*
X1950Y223D01*
Y240D01*
X1959D02*
X1967D01*
X1963D01*
Y215D01*
X1959D01*
X1967D01*
X1979Y240D02*
Y215D01*
X1992D01*
X1996Y219D01*
Y235D01*
X1992Y240D01*
X1979D01*
X2046Y215D02*
X2029D01*
X2046Y231D01*
Y235D01*
X2042Y240D01*
X2034D01*
X2029Y235D01*
X2054D02*
X2059Y240D01*
X2067D01*
X2071Y235D01*
Y219D01*
X2067Y215D01*
X2059D01*
X2054Y219D01*
Y235D01*
X2096Y215D02*
X2079D01*
X2096Y231D01*
Y235D01*
X2092Y240D01*
X2084D01*
X2079Y235D01*
X2104D02*
X2109Y240D01*
X2117D01*
X2121Y235D01*
Y219D01*
X2117Y215D01*
X2109D01*
X2104Y219D01*
Y235D01*
X1667Y198D02*
Y173D01*
X1679D01*
X1684Y177D01*
Y181D01*
X1679Y185D01*
X1667D01*
X1679D01*
X1684Y189D01*
Y193D01*
X1679Y198D01*
X1667D01*
X1704Y173D02*
X1696D01*
X1692Y177D01*
Y185D01*
X1696Y189D01*
X1704D01*
X1709Y185D01*
Y181D01*
X1692D01*
X1717Y173D02*
Y189D01*
X1729D01*
X1734Y185D01*
Y173D01*
X1759Y189D02*
X1746D01*
X1742Y185D01*
Y177D01*
X1746Y173D01*
X1759D01*
X1767Y198D02*
Y173D01*
Y185D01*
X1771Y189D01*
X1779D01*
X1784Y185D01*
Y173D01*
X1796Y193D02*
Y189D01*
X1792D01*
X1800D01*
X1796D01*
Y177D01*
X1800Y173D01*
X1817D02*
X1825D01*
X1829Y177D01*
Y185D01*
X1825Y189D01*
X1817D01*
X1813Y185D01*
Y177D01*
X1817Y173D01*
X1838Y164D02*
Y189D01*
X1850D01*
X1854Y185D01*
Y177D01*
X1850Y173D01*
X1838D01*
X1888D02*
Y198D01*
X1900D01*
X1904Y193D01*
Y185D01*
X1900Y181D01*
X1888D01*
X1913Y189D02*
Y177D01*
X1917Y173D01*
X1929D01*
Y189D01*
X1938Y173D02*
X1946D01*
X1942D01*
Y198D01*
X1938D01*
X1959Y173D02*
X1971D01*
X1975Y177D01*
X1971Y181D01*
X1963D01*
X1959Y185D01*
X1963Y189D01*
X1975D01*
X1996Y173D02*
X1988D01*
X1984Y177D01*
Y185D01*
X1988Y189D01*
X1996D01*
X2000Y185D01*
Y181D01*
X1984D01*
X2046Y198D02*
X2038D01*
X2034Y193D01*
Y177D01*
X2038Y173D01*
X2046D01*
X2050Y177D01*
Y193D01*
X2046Y198D01*
X2059Y189D02*
X2075Y173D01*
X2067Y181D01*
X2075Y189D01*
X2059Y173D01*
X2084D02*
X2092D01*
X2088D01*
Y189D01*
X2084D01*
X2104Y173D02*
Y189D01*
X2109D01*
X2113Y185D01*
Y173D01*
Y185D01*
X2117Y189D01*
X2121Y185D01*
Y173D01*
X2142D02*
X2134D01*
X2129Y177D01*
Y185D01*
X2134Y189D01*
X2142D01*
X2146Y185D01*
Y181D01*
X2129D01*
X2159Y193D02*
Y189D01*
X2154D01*
X2163D01*
X2159D01*
Y177D01*
X2163Y173D01*
X2188D02*
X2179D01*
X2175Y177D01*
Y185D01*
X2179Y189D01*
X2188D01*
X2192Y185D01*
Y181D01*
X2175D01*
X2200Y189D02*
Y173D01*
Y181D01*
X2204Y185D01*
X2208Y189D01*
X2213D01*
X2250Y198D02*
Y181D01*
X2258Y173D01*
X2267Y181D01*
Y198D01*
X2275Y193D02*
X2279Y198D01*
X2288D01*
X2292Y193D01*
Y177D01*
X2288Y173D01*
X2279D01*
X2275Y177D01*
Y193D01*
X1684Y143D02*
X1679Y147D01*
X1671D01*
X1667Y143D01*
Y126D01*
X1671Y122D01*
X1679D01*
X1684Y126D01*
X1692Y122D02*
Y126D01*
X1696D01*
Y122D01*
X1692D01*
X1738D02*
Y147D01*
X1746Y139D01*
X1754Y147D01*
Y122D01*
X1763D02*
X1771D01*
X1767D01*
Y139D01*
X1763D01*
X1784Y122D02*
X1792D01*
X1788D01*
Y147D01*
X1784D01*
X1804Y122D02*
X1813D01*
X1809D01*
Y147D01*
X1804D01*
X1838Y122D02*
X1829D01*
X1825Y126D01*
Y135D01*
X1829Y139D01*
X1838D01*
X1842Y135D01*
Y131D01*
X1825D01*
X1850Y139D02*
Y122D01*
Y131D01*
X1854Y135D01*
X1859Y139D01*
X1863D01*
X1667Y80D02*
Y105D01*
X1684Y80D01*
Y105D01*
X1692Y80D02*
Y84D01*
X1696D01*
Y80D01*
X1692D01*
X1738D02*
Y105D01*
X1750D01*
X1754Y101D01*
Y93D01*
X1750Y89D01*
X1738D01*
X1775Y80D02*
X1767D01*
X1763Y84D01*
Y93D01*
X1767Y97D01*
X1775D01*
X1779Y93D01*
Y89D01*
X1763D01*
X1792Y101D02*
Y97D01*
X1788D01*
X1796D01*
X1792D01*
Y84D01*
X1796Y80D01*
X1809Y97D02*
Y80D01*
Y89D01*
X1813Y93D01*
X1817Y97D01*
X1821D01*
X1834D02*
Y84D01*
X1838Y80D01*
X1850D01*
Y97D01*
X1859Y80D02*
Y97D01*
X1871D01*
X1875Y93D01*
Y80D01*
X1884Y97D02*
Y84D01*
X1888Y80D01*
X1900D01*
Y76D01*
X1896Y72D01*
X1892D01*
X1900Y80D02*
Y97D01*
X1913D02*
X1921D01*
X1925Y93D01*
Y80D01*
X1913D01*
X1909Y84D01*
X1913Y89D01*
X1925D01*
X1934Y80D02*
Y105D01*
Y89D02*
X1946Y97D01*
X1934Y89D02*
X1946Y80D01*
X2889Y898D02*
Y918D01*
X2899D01*
X2902Y915D01*
Y908D01*
X2899Y905D01*
X2889D01*
X2896D02*
X2902Y898D01*
X2922Y918D02*
X2909D01*
Y898D01*
X2922D01*
X2909Y908D02*
X2916D01*
X2929Y918D02*
Y898D01*
X2939D01*
X2942Y901D01*
Y915D01*
X2939Y918D01*
X2929D01*
X2906Y634D02*
X2913D01*
X2909D01*
Y614D01*
X2906D01*
X2913D01*
X2923D02*
Y634D01*
X2933D01*
X2936Y631D01*
Y624D01*
X2933Y621D01*
X2923D01*
X2929D02*
X2936Y614D01*
D17*
X2853Y647D02*
Y633D01*
X2860D01*
X2863Y635D01*
Y645D01*
X2860Y647D01*
X2853D01*
X2877D02*
X2872Y645D01*
X2867Y640D01*
Y635D01*
X2870Y633D01*
X2875D01*
X2877Y635D01*
Y638D01*
X2875Y640D01*
X2867D01*
X2814Y868D02*
Y853D01*
X2821D01*
X2824Y855D01*
Y865D01*
X2821Y868D01*
X2814D01*
X2838D02*
X2828D01*
Y860D01*
X2833Y863D01*
X2836D01*
X2838Y860D01*
Y855D01*
X2836Y853D01*
X2831D01*
X2828Y855D01*
X2697Y652D02*
Y662D01*
X2694Y664D01*
X2689D01*
X2687Y662D01*
Y652D01*
X2689Y650D01*
X2694D01*
X2692Y655D02*
X2697Y650D01*
X2694D02*
X2697Y652D01*
X2712Y650D02*
X2702D01*
X2712Y659D01*
Y662D01*
X2709Y664D01*
X2704D01*
X2702Y662D01*
X2476Y699D02*
Y713D01*
X2484D01*
X2486Y711D01*
Y706D01*
X2484Y704D01*
X2476D01*
X2481D02*
X2486Y699D01*
X2491D02*
X2496D01*
X2494D01*
Y713D01*
X2491Y711D01*
X2504Y701D02*
X2506Y699D01*
X2511D01*
X2514Y701D01*
Y711D01*
X2511Y713D01*
X2506D01*
X2504Y711D01*
Y708D01*
X2506Y706D01*
X2514D01*
X2272Y620D02*
Y608D01*
X2275Y606D01*
X2280D01*
X2282Y608D01*
Y620D01*
X2297Y606D02*
X2287D01*
X2297Y615D01*
Y618D01*
X2295Y620D01*
X2290D01*
X2287Y618D01*
X2155Y722D02*
X2152Y724D01*
X2147D01*
X2145Y722D01*
Y712D01*
X2147Y709D01*
X2152D01*
X2155Y712D01*
X2160D02*
X2162Y709D01*
X2167D01*
X2170Y712D01*
Y722D01*
X2167Y724D01*
X2162D01*
X2160Y722D01*
Y719D01*
X2162Y717D01*
X2170D01*
X2152Y770D02*
X2150Y773D01*
X2145D01*
X2142Y770D01*
Y760D01*
X2145Y758D01*
X2150D01*
X2152Y760D01*
X2157Y770D02*
X2160Y773D01*
X2165D01*
X2167Y770D01*
Y768D01*
X2165Y765D01*
X2167Y763D01*
Y760D01*
X2165Y758D01*
X2160D01*
X2157Y760D01*
Y763D01*
X2160Y765D01*
X2157Y768D01*
Y770D01*
X2160Y765D02*
X2165D01*
X2858Y518D02*
Y506D01*
X2860Y504D01*
X2865D01*
X2868Y506D01*
Y518D01*
X2882D02*
X2877Y516D01*
X2872Y511D01*
Y506D01*
X2875Y504D01*
X2880D01*
X2882Y506D01*
Y509D01*
X2880Y511D01*
X2872D01*
X2000Y1445D02*
X1995D01*
X1998D01*
Y1433D01*
X1995Y1431D01*
X1993D01*
X1990Y1433D01*
X2005Y1431D02*
X2010D01*
X2007D01*
Y1445D01*
X2005Y1443D01*
X2846Y1326D02*
X2856D01*
X2851D01*
Y1312D01*
X2861D02*
Y1326D01*
X2868D01*
X2871Y1324D01*
Y1319D01*
X2868Y1317D01*
X2861D01*
X2876Y1324D02*
X2878Y1326D01*
X2883D01*
X2886Y1324D01*
Y1321D01*
X2883Y1319D01*
X2881D01*
X2883D01*
X2886Y1317D01*
Y1314D01*
X2883Y1312D01*
X2878D01*
X2876Y1314D01*
X2677Y1336D02*
X2687D01*
X2682D01*
Y1322D01*
X2692D02*
Y1336D01*
X2699D01*
X2701Y1334D01*
Y1329D01*
X2699Y1327D01*
X2692D01*
X2706Y1322D02*
X2711D01*
X2709D01*
Y1336D01*
X2706Y1334D01*
X1714Y1116D02*
X1711Y1118D01*
X1706D01*
X1704Y1116D01*
Y1106D01*
X1706Y1104D01*
X1711D01*
X1714Y1106D01*
X1718Y1116D02*
X1721Y1118D01*
X1726D01*
X1728Y1116D01*
Y1113D01*
X1726Y1111D01*
X1723D01*
X1726D01*
X1728Y1109D01*
Y1106D01*
X1726Y1104D01*
X1721D01*
X1718Y1106D01*
X2596Y855D02*
Y869D01*
X2603D01*
X2606Y867D01*
Y862D01*
X2603Y860D01*
X2596D01*
X2601D02*
X2606Y855D01*
X2611D02*
X2616D01*
X2613D01*
Y869D01*
X2611Y867D01*
X2623Y869D02*
X2633D01*
Y867D01*
X2623Y857D01*
Y855D01*
X2709Y510D02*
Y520D01*
X2707Y522D01*
X2702D01*
X2699Y520D01*
Y510D01*
X2702Y507D01*
X2707D01*
X2704Y512D02*
X2709Y507D01*
X2707D02*
X2709Y510D01*
X2714Y507D02*
X2719D01*
X2716D01*
Y522D01*
X2714Y520D01*
X2671Y347D02*
X2657D01*
Y355D01*
X2659Y357D01*
X2664D01*
X2666Y355D01*
Y347D01*
Y352D02*
X2671Y357D01*
Y362D02*
Y367D01*
Y365D01*
X2657D01*
X2659Y362D01*
Y375D02*
X2657Y377D01*
Y382D01*
X2659Y385D01*
X2662D01*
X2664Y382D01*
X2666Y385D01*
X2669D01*
X2671Y382D01*
Y377D01*
X2669Y375D01*
X2666D01*
X2664Y377D01*
X2662Y375D01*
X2659D01*
X2664Y377D02*
Y382D01*
X2331Y327D02*
Y341D01*
X2339D01*
X2341Y339D01*
Y334D01*
X2339Y332D01*
X2331D01*
X2336D02*
X2341Y327D01*
X2346D02*
X2351D01*
X2349D01*
Y341D01*
X2346Y339D01*
X2369Y341D02*
X2364Y339D01*
X2359Y334D01*
Y329D01*
X2361Y327D01*
X2366D01*
X2369Y329D01*
Y332D01*
X2366Y334D01*
X2359D01*
X2940Y361D02*
X2942Y364D01*
Y369D01*
X2940Y371D01*
X2930D01*
X2928Y369D01*
Y364D01*
X2930Y361D01*
X2928Y356D02*
Y351D01*
Y354D01*
X2942D01*
X2940Y356D01*
X2928Y336D02*
X2942D01*
X2935Y344D01*
Y334D01*
X2787Y339D02*
Y353D01*
X2795D01*
X2797Y351D01*
Y346D01*
X2795Y344D01*
X2787D01*
X2792D02*
X2797Y339D01*
X2812D02*
X2802D01*
X2812Y348D01*
Y351D01*
X2809Y353D01*
X2805D01*
X2802Y351D01*
X2827Y353D02*
X2822Y351D01*
X2817Y346D01*
Y341D01*
X2819Y339D01*
X2824D01*
X2827Y341D01*
Y344D01*
X2824Y346D01*
X2817D01*
X2704Y346D02*
X2702Y348D01*
X2697D01*
X2694Y346D01*
Y336D01*
X2697Y334D01*
X2702D01*
X2704Y336D01*
X2709Y334D02*
X2714D01*
X2712D01*
Y348D01*
X2709Y346D01*
X2732Y348D02*
X2722D01*
Y341D01*
X2727Y343D01*
X2729D01*
X2732Y341D01*
Y336D01*
X2729Y334D01*
X2724D01*
X2722Y336D01*
X2970Y1280D02*
Y1295D01*
X2977D01*
X2980Y1292D01*
Y1287D01*
X2977Y1285D01*
X2970D01*
X2985Y1280D02*
X2990D01*
X2987D01*
Y1295D01*
X2985Y1292D01*
X485Y531D02*
Y519D01*
X487Y517D01*
X492D01*
X495Y519D01*
Y531D01*
X507Y517D02*
Y531D01*
X500Y524D01*
X510D01*
X268Y539D02*
X266Y541D01*
X261D01*
X258Y539D01*
Y529D01*
X261Y527D01*
X266D01*
X268Y529D01*
X273Y527D02*
X278D01*
X276D01*
Y541D01*
X273Y539D01*
X296Y527D02*
X286D01*
X296Y536D01*
Y539D01*
X293Y541D01*
X288D01*
X286Y539D01*
X280Y457D02*
Y471D01*
X287D01*
X290Y469D01*
Y464D01*
X287Y461D01*
X280D01*
X285D02*
X290Y457D01*
X305D02*
X295D01*
X305Y466D01*
Y469D01*
X302Y471D01*
X297D01*
X295Y469D01*
X310Y457D02*
X315D01*
X312D01*
Y471D01*
X310Y469D01*
X272Y387D02*
Y401D01*
X280D01*
X282Y399D01*
Y394D01*
X280Y391D01*
X272D01*
X277D02*
X282Y387D01*
X297D02*
X287D01*
X297Y396D01*
Y399D01*
X295Y401D01*
X290D01*
X287Y399D01*
X302D02*
X305Y401D01*
X310D01*
X312Y399D01*
Y389D01*
X310Y387D01*
X305D01*
X302Y389D01*
Y399D01*
X382Y947D02*
Y935D01*
X384Y933D01*
X389D01*
X392Y935D01*
Y947D01*
X396Y945D02*
X399Y947D01*
X404D01*
X406Y945D01*
Y942D01*
X404Y940D01*
X401D01*
X404D01*
X406Y938D01*
Y935D01*
X404Y933D01*
X399D01*
X396Y935D01*
X2146Y77D02*
X2156D01*
X2151D01*
Y63D01*
X2161D02*
Y77D01*
X2168D01*
X2171Y75D01*
Y70D01*
X2168Y68D01*
X2161D01*
X2186Y77D02*
X2176D01*
Y70D01*
X2181Y72D01*
X2183D01*
X2186Y70D01*
Y65D01*
X2183Y63D01*
X2178D01*
X2176Y65D01*
X642Y212D02*
X652D01*
X647D01*
Y197D01*
X657D02*
Y212D01*
X664D01*
X667Y209D01*
Y204D01*
X664Y202D01*
X657D01*
X679Y197D02*
Y212D01*
X672Y204D01*
X682D01*
X1906Y1305D02*
X1916D01*
X1911D01*
Y1291D01*
X1921D02*
Y1305D01*
X1928D01*
X1931Y1303D01*
Y1298D01*
X1928Y1296D01*
X1921D01*
X1946Y1291D02*
X1936D01*
X1946Y1300D01*
Y1303D01*
X1943Y1305D01*
X1938D01*
X1936Y1303D01*
X1038Y1184D02*
X1035Y1187D01*
X1030D01*
X1028Y1184D01*
Y1182D01*
X1030Y1179D01*
X1035D01*
X1038Y1177D01*
Y1174D01*
X1035Y1172D01*
X1030D01*
X1028Y1174D01*
X1043Y1187D02*
Y1172D01*
X1048Y1177D01*
X1053Y1172D01*
Y1187D01*
X1068Y1172D02*
X1058D01*
X1068Y1182D01*
Y1184D01*
X1065Y1187D01*
X1060D01*
X1058Y1184D01*
X1593Y1194D02*
X1590Y1196D01*
X1585D01*
X1583Y1194D01*
Y1191D01*
X1585Y1189D01*
X1590D01*
X1593Y1187D01*
Y1184D01*
X1590Y1182D01*
X1585D01*
X1583Y1184D01*
X1598Y1196D02*
Y1182D01*
X1602Y1187D01*
X1607Y1182D01*
Y1196D01*
X1612Y1182D02*
X1617D01*
X1615D01*
Y1196D01*
X1612Y1194D01*
X1436Y1275D02*
Y1289D01*
X1443D01*
X1446Y1287D01*
Y1282D01*
X1443Y1280D01*
X1436D01*
X1441D02*
X1446Y1275D01*
X1450Y1277D02*
X1453Y1275D01*
X1458D01*
X1460Y1277D01*
Y1287D01*
X1458Y1289D01*
X1453D01*
X1450Y1287D01*
Y1284D01*
X1453Y1282D01*
X1460D01*
X1908Y1176D02*
X1922D01*
Y1169D01*
X1920Y1166D01*
X1915D01*
X1913Y1169D01*
Y1176D01*
Y1171D02*
X1908Y1166D01*
Y1161D02*
Y1156D01*
Y1159D01*
X1922D01*
X1920Y1161D01*
X1424Y315D02*
Y300D01*
X1431D01*
X1434Y302D01*
Y312D01*
X1431Y315D01*
X1424D01*
X1446Y300D02*
Y315D01*
X1439Y307D01*
X1449D01*
X1269Y315D02*
Y300D01*
X1276D01*
X1279Y302D01*
Y312D01*
X1276Y315D01*
X1269D01*
X1284Y312D02*
X1286Y315D01*
X1291D01*
X1294Y312D01*
Y310D01*
X1291Y307D01*
X1289D01*
X1291D01*
X1294Y305D01*
Y302D01*
X1291Y300D01*
X1286D01*
X1284Y302D01*
X1118Y315D02*
Y300D01*
X1125D01*
X1128Y302D01*
Y312D01*
X1125Y315D01*
X1118D01*
X1143Y300D02*
X1133D01*
X1143Y310D01*
Y312D01*
X1140Y315D01*
X1135D01*
X1133Y312D01*
X679Y1106D02*
X677Y1104D01*
Y1099D01*
X679Y1096D01*
X689D01*
X691Y1099D01*
Y1104D01*
X689Y1106D01*
X691Y1111D02*
Y1116D01*
Y1114D01*
X677D01*
X679Y1111D01*
X691Y1124D02*
Y1129D01*
Y1126D01*
X677D01*
X679Y1124D01*
X290Y958D02*
X288Y960D01*
X283D01*
X280Y958D01*
Y948D01*
X283Y945D01*
X288D01*
X290Y948D01*
X295Y945D02*
X300D01*
X298D01*
Y960D01*
X295Y958D01*
X308D02*
X310Y960D01*
X315D01*
X318Y958D01*
Y948D01*
X315Y945D01*
X310D01*
X308Y948D01*
Y958D01*
X1367Y1363D02*
X1364Y1365D01*
X1359D01*
X1357Y1363D01*
Y1353D01*
X1359Y1351D01*
X1364D01*
X1367Y1353D01*
X1371Y1365D02*
X1381D01*
Y1363D01*
X1371Y1353D01*
Y1351D01*
M02*
