G04*
G04 #@! TF.GenerationSoftware,Altium Limited,Altium Designer,20.1.7 (139)*
G04*
G04 Layer_Color=128*
%FSLAX23Y23*%
%MOIN*%
G70*
G04*
G04 #@! TF.SameCoordinates,7C998F9C-D2B3-43E1-8EDA-AE96681A2DE1*
G04*
G04*
G04 #@! TF.FilePolarity,Positive*
G04*
G01*
G75*
%ADD21R,0.035X0.031*%
%ADD22R,0.035X0.028*%
%ADD24R,0.031X0.035*%
%ADD26R,0.028X0.035*%
%ADD28R,0.037X0.039*%
G04:AMPARAMS|DCode=66|XSize=12mil|YSize=39mil|CornerRadius=2mil|HoleSize=0mil|Usage=FLASHONLY|Rotation=0.000|XOffset=0mil|YOffset=0mil|HoleType=Round|Shape=RoundedRectangle|*
%AMROUNDEDRECTD66*
21,1,0.012,0.035,0,0,0.0*
21,1,0.008,0.039,0,0,0.0*
1,1,0.004,0.004,-0.018*
1,1,0.004,-0.004,-0.018*
1,1,0.004,-0.004,0.018*
1,1,0.004,0.004,0.018*
%
%ADD66ROUNDEDRECTD66*%
%ADD67R,0.156X0.156*%
%ADD68O,0.055X0.012*%
%ADD69O,0.079X0.012*%
D21*
X1975Y1070D02*
D03*
Y1126D02*
D03*
X1925Y1070D02*
D03*
Y1125D02*
D03*
D22*
X1660Y754D02*
D03*
Y814D02*
D03*
X1519Y728D02*
D03*
Y668D02*
D03*
X1576Y726D02*
D03*
Y667D02*
D03*
X1494Y363D02*
D03*
Y423D02*
D03*
X1335Y365D02*
D03*
Y424D02*
D03*
X1186Y366D02*
D03*
Y426D02*
D03*
D24*
X2532Y786D02*
D03*
X2477D02*
D03*
X1705Y584D02*
D03*
X1761D02*
D03*
X2480Y946D02*
D03*
X2535D02*
D03*
X2788Y943D02*
D03*
X2733D02*
D03*
D26*
X2536Y886D02*
D03*
X2476D02*
D03*
X1994Y683D02*
D03*
X1934D02*
D03*
X1993Y620D02*
D03*
X1933D02*
D03*
X1950Y739D02*
D03*
X1890D02*
D03*
X2587Y886D02*
D03*
X2647D02*
D03*
X2587Y945D02*
D03*
X2646D02*
D03*
X2790Y1003D02*
D03*
X2731D02*
D03*
D28*
X2367Y960D02*
D03*
Y1023D02*
D03*
D66*
X2417Y697D02*
D03*
X2437D02*
D03*
X2456D02*
D03*
X2476D02*
D03*
X2417Y563D02*
D03*
X2437D02*
D03*
X2456D02*
D03*
X2476D02*
D03*
D67*
X338Y750D02*
D03*
D68*
X2067Y923D02*
D03*
Y943D02*
D03*
Y963D02*
D03*
Y982D02*
D03*
Y1002D02*
D03*
Y1022D02*
D03*
Y1042D02*
D03*
Y1061D02*
D03*
Y1081D02*
D03*
Y1101D02*
D03*
Y1120D02*
D03*
Y1140D02*
D03*
Y1160D02*
D03*
Y1179D02*
D03*
Y1199D02*
D03*
Y1219D02*
D03*
Y1238D02*
D03*
Y1258D02*
D03*
Y1278D02*
D03*
X2299D02*
D03*
Y1258D02*
D03*
Y1238D02*
D03*
Y1219D02*
D03*
Y1199D02*
D03*
Y1179D02*
D03*
Y1160D02*
D03*
Y1140D02*
D03*
Y1120D02*
D03*
Y1101D02*
D03*
Y1081D02*
D03*
Y1061D02*
D03*
Y1042D02*
D03*
Y1022D02*
D03*
Y1002D02*
D03*
Y982D02*
D03*
Y963D02*
D03*
Y943D02*
D03*
Y923D02*
D03*
D69*
X1669Y639D02*
D03*
Y658D02*
D03*
Y678D02*
D03*
Y698D02*
D03*
Y717D02*
D03*
X1835Y639D02*
D03*
Y658D02*
D03*
Y678D02*
D03*
Y698D02*
D03*
Y717D02*
D03*
M02*
