G04*
G04 #@! TF.GenerationSoftware,Altium Limited,Altium Designer,20.1.7 (139)*
G04*
G04 Layer_Color=16711935*
%FSLAX23Y23*%
%MOIN*%
G70*
G04*
G04 #@! TF.SameCoordinates,7C998F9C-D2B3-43E1-8EDA-AE96681A2DE1*
G04*
G04*
G04 #@! TF.FilePolarity,Negative*
G04*
G01*
G75*
%ADD35R,0.043X0.036*%
%ADD37R,0.039X0.043*%
%ADD40R,0.036X0.043*%
%ADD41R,0.043X0.039*%
%ADD43R,0.045X0.047*%
%ADD48R,0.067X0.067*%
%ADD49C,0.067*%
%ADD50C,0.088*%
%ADD51R,0.067X0.067*%
%ADD52C,0.128*%
%ADD53C,0.058*%
%ADD54C,0.104*%
%ADD68O,0.055X0.012*%
G04:AMPARAMS|DCode=70|XSize=20mil|YSize=47mil|CornerRadius=6mil|HoleSize=0mil|Usage=FLASHONLY|Rotation=0.000|XOffset=0mil|YOffset=0mil|HoleType=Round|Shape=RoundedRectangle|*
%AMROUNDEDRECTD70*
21,1,0.020,0.035,0,0,0.0*
21,1,0.008,0.047,0,0,0.0*
1,1,0.012,0.004,-0.018*
1,1,0.012,-0.004,-0.018*
1,1,0.012,-0.004,0.018*
1,1,0.012,0.004,0.018*
%
%ADD70ROUNDEDRECTD70*%
%ADD71R,0.164X0.164*%
%ADD72O,0.087X0.020*%
D35*
X1660Y754D02*
D03*
Y814D02*
D03*
X1519Y728D02*
D03*
Y668D02*
D03*
X1576Y726D02*
D03*
Y667D02*
D03*
X1494Y363D02*
D03*
Y423D02*
D03*
X1335Y365D02*
D03*
Y424D02*
D03*
X1186Y366D02*
D03*
Y426D02*
D03*
D37*
X2532Y786D02*
D03*
X2477D02*
D03*
X1705Y584D02*
D03*
X1761D02*
D03*
X2480Y946D02*
D03*
X2535D02*
D03*
X2788Y943D02*
D03*
X2733D02*
D03*
D40*
X2536Y886D02*
D03*
X2476D02*
D03*
X1994Y683D02*
D03*
X1934D02*
D03*
X1993Y620D02*
D03*
X1933D02*
D03*
X1950Y739D02*
D03*
X1890D02*
D03*
X2587Y886D02*
D03*
X2647D02*
D03*
X2587Y945D02*
D03*
X2646D02*
D03*
X2790Y1003D02*
D03*
X2731D02*
D03*
D41*
X1975Y1070D02*
D03*
Y1126D02*
D03*
X1925Y1070D02*
D03*
Y1125D02*
D03*
D43*
X2367Y960D02*
D03*
Y1023D02*
D03*
D48*
X2585Y1408D02*
D03*
X1798Y1249D02*
D03*
X1283D02*
D03*
D49*
X2485Y1408D02*
D03*
X2385D02*
D03*
X2285D02*
D03*
X2185D02*
D03*
X2085D02*
D03*
X3006Y1204D02*
D03*
X1542Y1249D02*
D03*
Y1427D02*
D03*
X1798D02*
D03*
X1027Y1249D02*
D03*
Y1427D02*
D03*
X1283D02*
D03*
D50*
X2861Y1404D02*
D03*
X2725Y1406D02*
D03*
X1931Y1393D02*
D03*
X2286Y90D02*
D03*
X700Y112D02*
D03*
D51*
X3006Y1104D02*
D03*
D52*
X338Y1219D02*
D03*
Y280D02*
D03*
D53*
X2307Y800D02*
D03*
X2544Y728D02*
D03*
X2127Y982D02*
D03*
X2238Y514D02*
D03*
X1962D02*
D03*
X2116Y799D02*
D03*
X2383Y863D02*
D03*
X2399Y459D02*
D03*
X2046Y743D02*
D03*
X2265Y651D02*
D03*
X2549Y618D02*
D03*
X2740Y623D02*
D03*
X2538Y459D02*
D03*
X2728Y456D02*
D03*
X2587Y305D02*
D03*
X1706Y1255D02*
D03*
X1735Y1061D02*
D03*
X2037Y578D02*
D03*
X1992Y778D02*
D03*
X2222Y593D02*
D03*
X347Y604D02*
D03*
X353Y888D02*
D03*
X2617Y1037D02*
D03*
X2383Y1205D02*
D03*
X2235Y1219D02*
D03*
X1816Y968D02*
D03*
X1861Y1029D02*
D03*
X1992Y1003D02*
D03*
X1991Y924D02*
D03*
X1451Y863D02*
D03*
X2132Y1162D02*
D03*
X1722Y942D02*
D03*
X1641Y1064D02*
D03*
X1739Y791D02*
D03*
X1807Y785D02*
D03*
X1601Y1112D02*
D03*
X1919Y1271D02*
D03*
X2001Y1259D02*
D03*
X1338Y36D02*
D03*
X1186Y313D02*
D03*
X1333Y314D02*
D03*
X1492Y316D02*
D03*
X2896Y337D02*
D03*
X624Y965D02*
D03*
D54*
X3025Y1400D02*
D03*
X860D02*
D03*
Y100D02*
D03*
X3025D02*
D03*
D68*
X2067Y923D02*
D03*
Y943D02*
D03*
Y963D02*
D03*
Y982D02*
D03*
Y1002D02*
D03*
Y1022D02*
D03*
Y1042D02*
D03*
Y1061D02*
D03*
Y1081D02*
D03*
Y1101D02*
D03*
Y1120D02*
D03*
Y1140D02*
D03*
Y1160D02*
D03*
Y1179D02*
D03*
Y1199D02*
D03*
Y1219D02*
D03*
Y1238D02*
D03*
Y1258D02*
D03*
Y1278D02*
D03*
X2299D02*
D03*
Y1258D02*
D03*
Y1238D02*
D03*
Y1219D02*
D03*
Y1199D02*
D03*
Y1179D02*
D03*
Y1160D02*
D03*
Y1140D02*
D03*
Y1120D02*
D03*
Y1101D02*
D03*
Y1081D02*
D03*
Y1061D02*
D03*
Y1042D02*
D03*
Y1022D02*
D03*
Y1002D02*
D03*
Y982D02*
D03*
Y963D02*
D03*
Y943D02*
D03*
Y923D02*
D03*
D70*
X2417Y697D02*
D03*
X2437D02*
D03*
X2456D02*
D03*
X2476D02*
D03*
X2417Y563D02*
D03*
X2437D02*
D03*
X2456D02*
D03*
X2476D02*
D03*
D71*
X338Y750D02*
D03*
D72*
X1669Y639D02*
D03*
Y658D02*
D03*
Y678D02*
D03*
Y698D02*
D03*
Y717D02*
D03*
X1835Y639D02*
D03*
Y658D02*
D03*
Y678D02*
D03*
Y698D02*
D03*
Y717D02*
D03*
M02*
