G04*
G04 #@! TF.GenerationSoftware,Altium Limited,Altium Designer,20.1.7 (139)*
G04*
G04 Layer_Color=8421504*
%FSLAX23Y23*%
%MOIN*%
G70*
G04*
G04 #@! TF.SameCoordinates,7C998F9C-D2B3-43E1-8EDA-AE96681A2DE1*
G04*
G04*
G04 #@! TF.FilePolarity,Positive*
G04*
G01*
G75*
%ADD18R,0.033X0.014*%
%ADD19R,0.043X0.063*%
%ADD20R,0.055X0.063*%
%ADD21R,0.035X0.031*%
%ADD22R,0.035X0.028*%
%ADD23O,0.018X0.061*%
%ADD24R,0.031X0.035*%
%ADD25R,0.039X0.037*%
%ADD26R,0.028X0.035*%
%ADD27R,0.026X0.016*%
%ADD28R,0.037X0.039*%
%ADD29R,0.102X0.059*%
G04:AMPARAMS|DCode=30|XSize=75mil|YSize=126mil|CornerRadius=0mil|HoleSize=0mil|Usage=FLASHONLY|Rotation=270.000|XOffset=0mil|YOffset=0mil|HoleType=Round|Shape=Octagon|*
%AMOCTAGOND30*
4,1,8,0.063,0.019,0.063,-0.019,0.044,-0.037,-0.044,-0.037,-0.063,-0.019,-0.063,0.019,-0.044,0.037,0.044,0.037,0.063,0.019,0.0*
%
%ADD30OCTAGOND30*%

%ADD31R,0.055X0.024*%
%ADD32R,0.071X0.024*%
D18*
X2915Y552D02*
D03*
Y604D02*
D03*
X2829Y552D02*
D03*
Y578D02*
D03*
Y604D02*
D03*
D19*
X2954Y705D02*
D03*
X2820D02*
D03*
D20*
X2829Y803D02*
D03*
X2947D02*
D03*
D21*
X2694Y568D02*
D03*
X2616Y530D02*
D03*
Y605D02*
D03*
X2608Y750D02*
D03*
Y676D02*
D03*
X2686Y713D02*
D03*
X2935Y478D02*
D03*
Y422D02*
D03*
X684Y990D02*
D03*
Y1045D02*
D03*
X304Y993D02*
D03*
Y1048D02*
D03*
D22*
X2493Y671D02*
D03*
Y611D02*
D03*
X1865Y1101D02*
D03*
Y1161D02*
D03*
X2628Y416D02*
D03*
Y356D02*
D03*
X2805Y440D02*
D03*
Y380D02*
D03*
X1451Y1187D02*
D03*
Y1247D02*
D03*
D23*
X2333Y554D02*
D03*
X2359D02*
D03*
X2384D02*
D03*
X2410D02*
D03*
X2333Y737D02*
D03*
X2359D02*
D03*
X2384D02*
D03*
X2410D02*
D03*
D24*
X2203Y718D02*
D03*
X2258D02*
D03*
X2202Y766D02*
D03*
X2257D02*
D03*
X2763Y380D02*
D03*
X2707D02*
D03*
D25*
X1794Y1160D02*
D03*
X1731D02*
D03*
X344Y539D02*
D03*
X407D02*
D03*
D26*
X2603Y822D02*
D03*
X2663D02*
D03*
X2403Y377D02*
D03*
X2343D02*
D03*
X402Y474D02*
D03*
X343D02*
D03*
X342Y404D02*
D03*
X401D02*
D03*
D27*
X460Y485D02*
D03*
Y459D02*
D03*
Y433D02*
D03*
X535D02*
D03*
Y485D02*
D03*
D28*
X1380Y1310D02*
D03*
Y1247D02*
D03*
D29*
X1491Y109D02*
D03*
Y227D02*
D03*
X1336Y109D02*
D03*
Y227D02*
D03*
X1184Y109D02*
D03*
Y227D02*
D03*
D30*
X443Y1025D02*
D03*
D31*
X549Y1084D02*
D03*
Y966D02*
D03*
D32*
X541Y1025D02*
D03*
M02*
