G04*
G04 #@! TF.GenerationSoftware,Altium Limited,Altium Designer,20.1.7 (139)*
G04*
G04 Layer_Physical_Order=2*
G04 Layer_Color=16711680*
%FSLAX23Y23*%
%MOIN*%
G70*
G04*
G04 #@! TF.SameCoordinates,7C998F9C-D2B3-43E1-8EDA-AE96681A2DE1*
G04*
G04*
G04 #@! TF.FilePolarity,Positive*
G04*
G01*
G75*
%ADD15C,0.010*%
%ADD21R,0.035X0.031*%
%ADD22R,0.035X0.028*%
%ADD24R,0.031X0.035*%
%ADD26R,0.028X0.035*%
%ADD28R,0.037X0.039*%
%ADD59R,0.059X0.059*%
%ADD60C,0.059*%
%ADD61C,0.080*%
%ADD62R,0.059X0.059*%
%ADD63C,0.120*%
%ADD64C,0.050*%
%ADD65C,0.096*%
G04:AMPARAMS|DCode=66|XSize=12mil|YSize=39mil|CornerRadius=2mil|HoleSize=0mil|Usage=FLASHONLY|Rotation=0.000|XOffset=0mil|YOffset=0mil|HoleType=Round|Shape=RoundedRectangle|*
%AMROUNDEDRECTD66*
21,1,0.012,0.035,0,0,0.0*
21,1,0.008,0.039,0,0,0.0*
1,1,0.004,0.004,-0.018*
1,1,0.004,-0.004,-0.018*
1,1,0.004,-0.004,0.018*
1,1,0.004,0.004,0.018*
%
%ADD66ROUNDEDRECTD66*%
%ADD67R,0.156X0.156*%
%ADD68O,0.055X0.012*%
%ADD69O,0.079X0.012*%
G36*
X3125D02*
X0D01*
Y1501D01*
X3125D01*
Y0D01*
D02*
G37*
%LPC*%
G36*
X2625Y1448D02*
X2545D01*
Y1368D01*
X2625D01*
Y1448D01*
D02*
G37*
G36*
X2725Y1456D02*
X2712Y1455D01*
X2700Y1450D01*
X2689Y1442D01*
X2681Y1431D01*
X2676Y1419D01*
X2675Y1406D01*
X2676Y1393D01*
X2681Y1381D01*
X2689Y1370D01*
X2700Y1362D01*
X2712Y1357D01*
X2725Y1356D01*
X2738Y1357D01*
X2750Y1362D01*
X2761Y1370D01*
X2769Y1381D01*
X2774Y1393D01*
X2775Y1406D01*
X2774Y1419D01*
X2769Y1431D01*
X2761Y1442D01*
X2750Y1450D01*
X2738Y1455D01*
X2725Y1456D01*
D02*
G37*
G36*
X2861Y1454D02*
X2848Y1453D01*
X2836Y1448D01*
X2825Y1440D01*
X2817Y1429D01*
X2812Y1417D01*
X2811Y1404D01*
X2812Y1391D01*
X2817Y1379D01*
X2825Y1368D01*
X2836Y1360D01*
X2848Y1355D01*
X2861Y1354D01*
X2874Y1355D01*
X2886Y1360D01*
X2897Y1368D01*
X2905Y1379D01*
X2910Y1391D01*
X2911Y1404D01*
X2910Y1417D01*
X2905Y1429D01*
X2897Y1440D01*
X2886Y1448D01*
X2874Y1453D01*
X2861Y1454D01*
D02*
G37*
G36*
X2485Y1448D02*
X2475Y1447D01*
X2465Y1443D01*
X2457Y1436D01*
X2450Y1428D01*
X2446Y1418D01*
X2445Y1408D01*
X2446Y1398D01*
X2448Y1393D01*
X2405Y1350D01*
X2400Y1351D01*
Y1372D01*
X2405Y1373D01*
X2413Y1380D01*
X2420Y1388D01*
X2424Y1398D01*
X2425Y1408D01*
X2424Y1418D01*
X2420Y1428D01*
X2413Y1436D01*
X2405Y1443D01*
X2395Y1447D01*
X2385Y1448D01*
X2375Y1447D01*
X2365Y1443D01*
X2357Y1436D01*
X2350Y1428D01*
X2346Y1418D01*
X2345Y1408D01*
X2346Y1398D01*
X2350Y1388D01*
X2357Y1380D01*
X2365Y1373D01*
X2370Y1372D01*
Y1348D01*
X2316Y1294D01*
X2278D01*
X2271Y1293D01*
X2266Y1289D01*
X2263Y1284D01*
X2261Y1278D01*
X2263Y1272D01*
X2265Y1268D01*
X2263Y1264D01*
X2261Y1258D01*
X2263Y1252D01*
X2263Y1251D01*
X2263Y1251D01*
X2262Y1249D01*
X2256Y1247D01*
X2253Y1250D01*
X2244Y1253D01*
X2235Y1255D01*
X2226Y1253D01*
X2217Y1250D01*
X2210Y1244D01*
X2209Y1245D01*
X2205Y1246D01*
Y1374D01*
X2213Y1380D01*
X2220Y1388D01*
X2224Y1398D01*
X2225Y1408D01*
X2224Y1418D01*
X2220Y1428D01*
X2213Y1436D01*
X2205Y1443D01*
X2195Y1447D01*
X2185Y1448D01*
X2175Y1447D01*
X2165Y1443D01*
X2157Y1436D01*
X2150Y1428D01*
X2146Y1418D01*
X2145Y1408D01*
X2146Y1398D01*
X2150Y1388D01*
X2157Y1380D01*
X2165Y1373D01*
X2175Y1369D01*
X2175Y1369D01*
Y1346D01*
X2170Y1345D01*
X2122Y1393D01*
X2124Y1398D01*
X2125Y1408D01*
X2124Y1418D01*
X2120Y1428D01*
X2113Y1436D01*
X2105Y1443D01*
X2095Y1447D01*
X2085Y1448D01*
X2075Y1447D01*
X2065Y1443D01*
X2057Y1436D01*
X2050Y1428D01*
X2046Y1418D01*
X2045Y1408D01*
X2046Y1398D01*
X2050Y1388D01*
X2057Y1380D01*
X2065Y1373D01*
X2070Y1372D01*
Y1357D01*
X2045Y1333D01*
X2042Y1328D01*
X1827D01*
X1821Y1327D01*
X1816Y1324D01*
X1791Y1299D01*
X1788Y1294D01*
X1787Y1289D01*
X1759D01*
Y1210D01*
X1759D01*
X1757Y1206D01*
X1572D01*
X1566Y1204D01*
X1561Y1201D01*
X1306Y946D01*
X1303Y941D01*
X1302Y935D01*
Y563D01*
X1188Y449D01*
X1158D01*
Y402D01*
X1214D01*
Y432D01*
X1315Y533D01*
X1320Y531D01*
Y448D01*
X1307D01*
Y400D01*
X1363D01*
Y448D01*
X1350D01*
Y534D01*
X1355Y536D01*
X1466Y425D01*
Y399D01*
X1522D01*
Y446D01*
X1488D01*
X1368Y566D01*
Y914D01*
X1562Y1108D01*
X1566Y1106D01*
X1567Y1103D01*
X1570Y1094D01*
X1576Y1087D01*
X1583Y1081D01*
X1586Y1080D01*
Y1056D01*
X1575Y1045D01*
X1572Y1040D01*
X1571Y1034D01*
Y852D01*
X1513Y794D01*
X1510Y789D01*
X1509Y783D01*
Y751D01*
X1491D01*
Y720D01*
X1487Y719D01*
X1466Y739D01*
Y831D01*
X1469Y832D01*
X1476Y838D01*
X1482Y845D01*
X1485Y854D01*
X1486Y863D01*
X1485Y872D01*
X1482Y881D01*
X1476Y888D01*
X1469Y894D01*
X1460Y897D01*
X1451Y898D01*
X1442Y897D01*
X1433Y894D01*
X1426Y888D01*
X1420Y881D01*
X1417Y872D01*
X1416Y863D01*
X1417Y854D01*
X1420Y845D01*
X1426Y838D01*
X1433Y832D01*
X1436Y831D01*
Y733D01*
X1437Y727D01*
X1440Y722D01*
X1491Y671D01*
Y645D01*
X1521D01*
X1593Y573D01*
X1598Y570D01*
X1603Y569D01*
X1680D01*
Y556D01*
X1731D01*
Y612D01*
X1680D01*
Y599D01*
X1610D01*
X1571Y639D01*
X1572Y643D01*
X1604D01*
Y653D01*
X1609Y654D01*
X1614Y658D01*
X1615Y658D01*
X1620Y656D01*
X1621Y652D01*
X1623Y648D01*
X1621Y645D01*
X1620Y639D01*
X1621Y632D01*
X1624Y627D01*
X1630Y624D01*
X1636Y622D01*
X1703D01*
X1709Y624D01*
X1714Y627D01*
X1718Y632D01*
X1719Y639D01*
X1718Y645D01*
X1715Y648D01*
X1718Y652D01*
X1719Y658D01*
X1718Y665D01*
X1715Y668D01*
X1718Y672D01*
X1719Y678D01*
X1718Y684D01*
X1715Y688D01*
X1718Y691D01*
X1719Y698D01*
X1718Y704D01*
X1715Y708D01*
X1718Y711D01*
X1719Y716D01*
X1723Y718D01*
X1724Y718D01*
X1754Y688D01*
X1754Y682D01*
X1750Y679D01*
X1747Y674D01*
X1746Y668D01*
Y586D01*
X1745Y584D01*
X1746Y578D01*
X1750Y573D01*
X1755Y570D01*
X1761Y569D01*
X1766Y570D01*
X1771Y573D01*
X1772Y574D01*
X1775Y579D01*
X1776Y584D01*
Y658D01*
X1781Y662D01*
X1782Y662D01*
X1785Y659D01*
X1785Y658D01*
X1786Y652D01*
X1789Y648D01*
X1786Y645D01*
X1785Y639D01*
X1786Y632D01*
X1790Y627D01*
X1795Y624D01*
X1801Y622D01*
X1868D01*
X1873Y623D01*
X1910D01*
Y592D01*
X1957D01*
Y648D01*
X1932D01*
X1930Y650D01*
X1932Y655D01*
X1958D01*
Y707D01*
X1958Y711D01*
X1961Y715D01*
X1963Y715D01*
X1966Y720D01*
X1967Y726D01*
X1966Y732D01*
X1963Y737D01*
X1962Y738D01*
X1957Y741D01*
X1951Y742D01*
X1945Y741D01*
X1940Y738D01*
X1937Y733D01*
X1936Y727D01*
X1937Y721D01*
X1940Y716D01*
X1941Y716D01*
X1941Y715D01*
X1939Y711D01*
X1919D01*
X1914Y711D01*
X1914Y714D01*
Y714D01*
X1914Y714D01*
Y767D01*
X1885D01*
X1883Y772D01*
X1885Y775D01*
X1886Y781D01*
Y868D01*
X1952Y933D01*
X1957Y931D01*
X1956Y924D01*
X1957Y914D01*
X1960Y906D01*
X1966Y899D01*
X1973Y893D01*
X1982Y889D01*
X1991Y888D01*
X2000Y889D01*
X2009Y893D01*
X2016Y899D01*
X2022Y906D01*
X2025Y914D01*
X2025Y916D01*
X2030Y917D01*
X2030Y917D01*
X2034Y912D01*
X2039Y908D01*
X2045Y907D01*
X2089D01*
X2090Y906D01*
Y882D01*
X2014Y805D01*
X2010Y809D01*
X2001Y812D01*
X1992Y813D01*
X1983Y812D01*
X1974Y809D01*
X1967Y803D01*
X1961Y796D01*
X1958Y787D01*
X1957Y778D01*
X1958Y769D01*
X1961Y760D01*
X1967Y753D01*
X1974Y747D01*
X1983Y744D01*
X1992Y743D01*
X2001Y744D01*
X2006Y746D01*
X2010Y743D01*
X2011Y742D01*
X2012Y734D01*
X2015Y725D01*
X2021Y718D01*
X2028Y712D01*
X2037Y709D01*
X2046Y708D01*
X2055Y709D01*
X2064Y712D01*
X2071Y718D01*
X2077Y725D01*
X2080Y734D01*
X2081Y743D01*
X2080Y752D01*
X2077Y761D01*
X2071Y768D01*
X2064Y774D01*
X2061Y775D01*
Y784D01*
X2076Y798D01*
X2081Y796D01*
X2082Y790D01*
X2085Y781D01*
X2091Y774D01*
X2098Y768D01*
X2107Y765D01*
X2116Y764D01*
X2125Y765D01*
X2134Y768D01*
X2141Y774D01*
X2147Y781D01*
X2150Y790D01*
X2151Y799D01*
X2150Y808D01*
X2149Y810D01*
X2203Y864D01*
X2208Y863D01*
Y816D01*
X2090Y698D01*
X2017D01*
Y711D01*
X1970D01*
Y655D01*
X1998D01*
X2000Y651D01*
X1998Y648D01*
X1969D01*
Y592D01*
X2001D01*
X2003Y588D01*
X2003Y587D01*
X2002Y578D01*
X2003Y569D01*
X2006Y560D01*
X2012Y553D01*
X2019Y547D01*
X2028Y544D01*
X2037Y543D01*
X2046Y544D01*
X2055Y547D01*
X2062Y553D01*
X2068Y560D01*
X2069Y563D01*
X2100D01*
X2106Y564D01*
X2111Y567D01*
X2176Y633D01*
X2235D01*
X2240Y626D01*
X2247Y620D01*
X2256Y617D01*
X2265Y616D01*
X2274Y617D01*
X2283Y620D01*
X2290Y626D01*
X2296Y633D01*
X2299Y642D01*
X2300Y651D01*
X2299Y660D01*
X2296Y669D01*
X2290Y676D01*
X2283Y682D01*
X2274Y685D01*
X2265Y686D01*
X2256Y685D01*
X2247Y682D01*
X2240Y676D01*
X2234Y669D01*
X2232Y663D01*
X2170D01*
X2164Y662D01*
X2159Y659D01*
X2093Y593D01*
X2069D01*
X2068Y596D01*
X2062Y603D01*
X2055Y609D01*
X2046Y612D01*
X2037Y613D01*
X2028Y612D01*
X2021Y609D01*
X2016Y612D01*
Y622D01*
X2044Y650D01*
X2104D01*
X2110Y651D01*
X2115Y654D01*
X2239Y778D01*
X2244Y777D01*
Y741D01*
X2245Y735D01*
X2248Y730D01*
X2395Y583D01*
X2400Y580D01*
X2406Y579D01*
X2419D01*
X2420Y577D01*
X2420Y576D01*
Y564D01*
X2420Y564D01*
Y545D01*
X2421Y541D01*
X2424Y537D01*
X2428Y534D01*
X2433Y533D01*
X2441D01*
X2443Y534D01*
X2446Y529D01*
X2505Y470D01*
X2504Y468D01*
X2503Y459D01*
X2504Y450D01*
X2507Y441D01*
X2513Y434D01*
X2520Y428D01*
X2529Y425D01*
X2538Y424D01*
X2547Y425D01*
X2556Y428D01*
X2563Y434D01*
X2569Y441D01*
X2572Y450D01*
X2573Y459D01*
X2572Y468D01*
X2569Y477D01*
X2563Y484D01*
X2556Y490D01*
X2547Y493D01*
X2538Y494D01*
X2529Y493D01*
X2527Y492D01*
X2488Y530D01*
X2489Y537D01*
X2491Y541D01*
X2492Y545D01*
Y548D01*
X2680D01*
X2686Y549D01*
X2691Y552D01*
X2729Y590D01*
X2731Y589D01*
X2740Y588D01*
X2749Y589D01*
X2758Y592D01*
X2765Y598D01*
X2771Y605D01*
X2774Y614D01*
X2775Y623D01*
X2774Y632D01*
X2771Y641D01*
X2765Y648D01*
X2758Y654D01*
X2749Y657D01*
X2740Y658D01*
X2731Y657D01*
X2722Y654D01*
X2715Y648D01*
X2709Y641D01*
X2706Y632D01*
X2705Y623D01*
X2706Y614D01*
X2707Y612D01*
X2674Y578D01*
X2555D01*
X2555Y583D01*
X2558Y584D01*
X2567Y587D01*
X2574Y593D01*
X2580Y600D01*
X2583Y609D01*
X2584Y618D01*
X2583Y627D01*
X2580Y636D01*
X2574Y643D01*
X2567Y649D01*
X2558Y652D01*
X2549Y653D01*
X2540Y652D01*
X2531Y649D01*
X2524Y643D01*
X2518Y636D01*
X2517Y633D01*
X2476D01*
X2463Y646D01*
X2465Y651D01*
X2485D01*
X2491Y652D01*
X2496Y655D01*
X2535Y694D01*
X2535Y694D01*
X2544Y693D01*
X2553Y694D01*
X2562Y697D01*
X2569Y703D01*
X2575Y710D01*
X2578Y719D01*
X2579Y728D01*
X2578Y737D01*
X2575Y746D01*
X2569Y753D01*
X2562Y759D01*
X2553Y762D01*
X2544Y763D01*
X2535Y762D01*
X2526Y759D01*
X2519Y753D01*
X2513Y746D01*
X2510Y737D01*
X2509Y728D01*
X2510Y719D01*
X2512Y714D01*
X2497Y699D01*
X2492Y701D01*
Y715D01*
X2492Y716D01*
Y758D01*
X2503D01*
Y814D01*
X2473D01*
X2420Y866D01*
X2418Y868D01*
X2417Y872D01*
X2414Y881D01*
X2408Y888D01*
X2401Y894D01*
X2392Y897D01*
X2383Y898D01*
X2374Y897D01*
X2365Y894D01*
X2358Y888D01*
X2352Y881D01*
X2349Y872D01*
X2348Y863D01*
X2349Y854D01*
X2352Y845D01*
X2358Y838D01*
X2365Y832D01*
X2374Y829D01*
X2383Y828D01*
X2392Y829D01*
X2401Y832D01*
X2406Y837D01*
X2451Y792D01*
Y771D01*
X2447Y769D01*
X2411Y805D01*
X2406Y808D01*
X2400Y809D01*
X2341D01*
X2338Y818D01*
X2332Y825D01*
X2325Y831D01*
X2316Y834D01*
X2307Y835D01*
X2298Y834D01*
X2289Y831D01*
X2282Y825D01*
X2279Y821D01*
X2274Y823D01*
Y904D01*
X2278Y907D01*
X2321D01*
X2327Y908D01*
X2332Y912D01*
X2336Y917D01*
X2337Y923D01*
X2337Y926D01*
X2341Y930D01*
X2396D01*
Y990D01*
X2396D01*
Y991D01*
X2397Y991D01*
X2402Y988D01*
Y921D01*
X2403Y915D01*
X2406Y910D01*
X2434Y882D01*
X2439Y879D01*
X2445Y878D01*
X2453D01*
Y858D01*
X2500D01*
Y914D01*
X2453D01*
Y914D01*
X2448Y912D01*
X2432Y927D01*
Y998D01*
X2431Y1004D01*
X2428Y1009D01*
X2406Y1031D01*
X2401Y1034D01*
X2396Y1035D01*
Y1053D01*
X2359D01*
X2351Y1061D01*
X2353Y1065D01*
X2567D01*
X2584Y1048D01*
X2583Y1046D01*
X2582Y1037D01*
X2583Y1028D01*
X2584Y1025D01*
X2576Y1017D01*
X2573Y1012D01*
X2572Y1006D01*
Y976D01*
X2568Y973D01*
X2565D01*
X2561Y974D01*
X2559Y974D01*
X2509D01*
Y918D01*
X2511D01*
X2512Y914D01*
X2512D01*
Y858D01*
X2559D01*
Y858D01*
X2564Y858D01*
Y858D01*
X2611D01*
Y913D01*
X2611Y914D01*
X2611Y918D01*
Y973D01*
X2602D01*
Y1000D01*
X2606Y1004D01*
X2608Y1003D01*
X2617Y1002D01*
X2626Y1003D01*
X2635Y1006D01*
X2642Y1012D01*
X2648Y1019D01*
X2651Y1028D01*
X2652Y1037D01*
X2651Y1046D01*
X2648Y1055D01*
X2642Y1062D01*
X2635Y1068D01*
X2626Y1071D01*
X2617Y1072D01*
X2608Y1071D01*
X2606Y1070D01*
X2595Y1081D01*
X2597Y1085D01*
X2691D01*
X2740Y1036D01*
X2738Y1031D01*
X2708D01*
Y976D01*
X2708Y976D01*
X2708D01*
X2708Y971D01*
X2708D01*
Y959D01*
X2670D01*
Y973D01*
X2622D01*
Y918D01*
X2622Y917D01*
X2622Y917D01*
X2623Y914D01*
X2623D01*
Y858D01*
X2670D01*
Y913D01*
X2670Y914D01*
X2670Y914D01*
X2670Y917D01*
X2670D01*
Y928D01*
X2708D01*
Y916D01*
X2759D01*
Y916D01*
X2763D01*
Y916D01*
X2814D01*
Y971D01*
X2814D01*
X2814Y976D01*
X2814D01*
Y990D01*
X2907D01*
X2913Y991D01*
X2918Y994D01*
X2988Y1064D01*
X3046D01*
Y1144D01*
X2974D01*
X2972Y1148D01*
X3017Y1193D01*
X3020Y1198D01*
X3021Y1204D01*
X3020Y1210D01*
X3017Y1215D01*
X3012Y1218D01*
X3006Y1219D01*
X3000Y1218D01*
X2995Y1215D01*
X2914Y1133D01*
X2707D01*
X2704Y1134D01*
X2340D01*
X2337Y1138D01*
X2337Y1140D01*
X2336Y1146D01*
X2333Y1150D01*
X2336Y1153D01*
X2337Y1160D01*
X2337Y1160D01*
X2340Y1164D01*
X2357D01*
X2363Y1165D01*
X2368Y1168D01*
X2372Y1172D01*
X2374Y1171D01*
X2383Y1170D01*
X2392Y1171D01*
X2401Y1174D01*
X2408Y1180D01*
X2414Y1187D01*
X2417Y1196D01*
X2418Y1205D01*
X2417Y1214D01*
X2414Y1223D01*
X2408Y1230D01*
X2401Y1236D01*
X2392Y1239D01*
X2383Y1240D01*
X2374Y1239D01*
X2365Y1236D01*
X2358Y1230D01*
X2352Y1223D01*
X2349Y1214D01*
X2348Y1205D01*
X2348Y1200D01*
X2345Y1195D01*
X2340Y1195D01*
X2337Y1199D01*
X2336Y1205D01*
X2333Y1209D01*
X2336Y1212D01*
X2337Y1219D01*
X2336Y1225D01*
X2333Y1229D01*
X2336Y1232D01*
X2337Y1238D01*
X2337Y1240D01*
X2341Y1245D01*
X2343Y1246D01*
X2347Y1249D01*
X2470Y1371D01*
X2475Y1369D01*
X2485Y1368D01*
X2495Y1369D01*
X2505Y1373D01*
X2513Y1380D01*
X2520Y1388D01*
X2524Y1398D01*
X2525Y1408D01*
X2524Y1418D01*
X2520Y1428D01*
X2513Y1436D01*
X2505Y1443D01*
X2495Y1447D01*
X2485Y1448D01*
D02*
G37*
G36*
X1931Y1443D02*
X1918Y1442D01*
X1905Y1437D01*
X1895Y1429D01*
X1887Y1418D01*
X1882Y1406D01*
X1880Y1393D01*
X1882Y1380D01*
X1887Y1368D01*
X1895Y1357D01*
X1905Y1349D01*
X1918Y1344D01*
X1931Y1343D01*
X1944Y1344D01*
X1956Y1349D01*
X1966Y1357D01*
X1974Y1368D01*
X1979Y1380D01*
X1981Y1393D01*
X1979Y1406D01*
X1974Y1418D01*
X1966Y1429D01*
X1956Y1437D01*
X1944Y1442D01*
X1931Y1443D01*
D02*
G37*
G36*
X3025Y1458D02*
X3014Y1457D01*
X3003Y1454D01*
X2993Y1448D01*
X2984Y1441D01*
X2977Y1432D01*
X2971Y1422D01*
X2968Y1411D01*
X2967Y1400D01*
X2968Y1389D01*
X2971Y1378D01*
X2977Y1368D01*
X2984Y1359D01*
X2993Y1352D01*
X3003Y1346D01*
X3014Y1343D01*
X3025Y1342D01*
X3036Y1343D01*
X3047Y1346D01*
X3057Y1352D01*
X3066Y1359D01*
X3073Y1368D01*
X3079Y1378D01*
X3082Y1389D01*
X3083Y1400D01*
X3082Y1411D01*
X3079Y1422D01*
X3073Y1432D01*
X3066Y1441D01*
X3057Y1448D01*
X3047Y1454D01*
X3036Y1457D01*
X3025Y1458D01*
D02*
G37*
G36*
X860D02*
X849Y1457D01*
X838Y1454D01*
X828Y1448D01*
X819Y1441D01*
X812Y1432D01*
X806Y1422D01*
X803Y1411D01*
X802Y1400D01*
X803Y1389D01*
X806Y1378D01*
X812Y1368D01*
X819Y1359D01*
X828Y1352D01*
X838Y1346D01*
X849Y1343D01*
X860Y1342D01*
X871Y1343D01*
X882Y1346D01*
X892Y1352D01*
X901Y1359D01*
X908Y1368D01*
X914Y1378D01*
X917Y1389D01*
X918Y1400D01*
X917Y1411D01*
X914Y1422D01*
X908Y1432D01*
X901Y1441D01*
X892Y1448D01*
X882Y1454D01*
X871Y1457D01*
X860Y1458D01*
D02*
G37*
G36*
X1706Y1270D02*
X1700Y1269D01*
X1698Y1268D01*
X1545D01*
X1539Y1266D01*
X1534Y1263D01*
X1531Y1260D01*
X1528Y1255D01*
X1527Y1249D01*
X1528Y1244D01*
X1531Y1239D01*
X1536Y1235D01*
X1542Y1234D01*
X1548Y1235D01*
X1550Y1237D01*
X1703D01*
X1709Y1238D01*
X1714Y1241D01*
X1717Y1244D01*
X1720Y1249D01*
X1721Y1255D01*
X1720Y1261D01*
X1717Y1266D01*
X1712Y1269D01*
X1706Y1270D01*
D02*
G37*
G36*
X1322Y1289D02*
X1243D01*
Y1210D01*
X1322D01*
Y1289D01*
D02*
G37*
G36*
X338Y1290D02*
X324Y1288D01*
X311Y1284D01*
X299Y1278D01*
X288Y1269D01*
X280Y1259D01*
X273Y1246D01*
X269Y1233D01*
X268Y1219D01*
X269Y1206D01*
X273Y1193D01*
X280Y1180D01*
X288Y1170D01*
X299Y1161D01*
X311Y1155D01*
X324Y1151D01*
X338Y1149D01*
X352Y1151D01*
X365Y1155D01*
X377Y1161D01*
X388Y1170D01*
X396Y1180D01*
X403Y1193D01*
X407Y1206D01*
X408Y1219D01*
X407Y1233D01*
X403Y1246D01*
X396Y1259D01*
X388Y1269D01*
X377Y1278D01*
X365Y1284D01*
X352Y1288D01*
X338Y1290D01*
D02*
G37*
G36*
X2238Y549D02*
X2229Y548D01*
X2220Y545D01*
X2213Y539D01*
X2207Y532D01*
X2206Y529D01*
X1994D01*
X1993Y532D01*
X1987Y539D01*
X1980Y545D01*
X1971Y548D01*
X1962Y549D01*
X1953Y548D01*
X1944Y545D01*
X1937Y539D01*
X1931Y532D01*
X1928Y523D01*
X1927Y514D01*
X1928Y505D01*
X1931Y496D01*
X1937Y489D01*
X1944Y483D01*
X1953Y480D01*
X1962Y479D01*
X1971Y480D01*
X1980Y483D01*
X1987Y489D01*
X1993Y496D01*
X1994Y499D01*
X2206D01*
X2207Y496D01*
X2213Y489D01*
X2220Y483D01*
X2229Y480D01*
X2238Y479D01*
X2247Y480D01*
X2255Y483D01*
X2263Y489D01*
X2268Y496D01*
X2272Y505D01*
X2273Y514D01*
X2272Y523D01*
X2268Y532D01*
X2263Y539D01*
X2255Y545D01*
X2247Y548D01*
X2238Y549D01*
D02*
G37*
G36*
X2896Y372D02*
X2887Y371D01*
X2878Y368D01*
X2871Y362D01*
X2865Y355D01*
X2862Y346D01*
X2861Y337D01*
X2862Y328D01*
X2865Y319D01*
X2871Y312D01*
X2878Y306D01*
X2887Y303D01*
X2896Y302D01*
X2905Y303D01*
X2914Y306D01*
X2921Y312D01*
X2927Y319D01*
X2930Y328D01*
X2931Y337D01*
X2930Y346D01*
X2927Y355D01*
X2921Y362D01*
X2914Y368D01*
X2905Y371D01*
X2896Y372D01*
D02*
G37*
G36*
X1522Y387D02*
X1466D01*
Y340D01*
X1461Y334D01*
X1458Y325D01*
X1457Y316D01*
X1458Y307D01*
X1461Y298D01*
X1467Y291D01*
X1474Y285D01*
X1483Y282D01*
X1492Y281D01*
X1501Y282D01*
X1510Y285D01*
X1517Y291D01*
X1523Y298D01*
X1526Y307D01*
X1527Y316D01*
X1526Y325D01*
X1523Y334D01*
X1520Y337D01*
X1522Y340D01*
X1522D01*
Y387D01*
D02*
G37*
G36*
X1363Y389D02*
X1307D01*
Y341D01*
X1307Y341D01*
X1306Y337D01*
X1302Y332D01*
X1299Y323D01*
X1298Y314D01*
X1299Y305D01*
X1302Y296D01*
X1308Y289D01*
X1315Y283D01*
X1324Y280D01*
X1333Y279D01*
X1342Y280D01*
X1351Y283D01*
X1358Y289D01*
X1364Y296D01*
X1367Y305D01*
X1368Y314D01*
X1367Y323D01*
X1364Y332D01*
X1360Y336D01*
X1363Y341D01*
X1363D01*
Y389D01*
D02*
G37*
G36*
X1214Y390D02*
X1158D01*
Y343D01*
X1159D01*
X1161Y339D01*
X1161Y338D01*
X1155Y331D01*
X1152Y322D01*
X1151Y313D01*
X1152Y304D01*
X1155Y295D01*
X1161Y288D01*
X1168Y282D01*
X1177Y279D01*
X1186Y278D01*
X1195Y279D01*
X1204Y282D01*
X1211Y288D01*
X1217Y295D01*
X1220Y304D01*
X1221Y313D01*
X1220Y322D01*
X1217Y331D01*
X1211Y338D01*
X1211Y339D01*
X1213Y343D01*
X1214D01*
Y390D01*
D02*
G37*
G36*
X2399Y494D02*
X2390Y493D01*
X2381Y490D01*
X2374Y484D01*
X2368Y477D01*
X2365Y468D01*
X2364Y459D01*
X2365Y450D01*
X2368Y441D01*
X2374Y434D01*
X2381Y428D01*
X2390Y425D01*
X2399Y424D01*
X2408Y425D01*
X2410Y426D01*
X2536Y300D01*
X2541Y297D01*
X2547Y296D01*
X2553D01*
X2556Y287D01*
X2562Y280D01*
X2569Y274D01*
X2578Y271D01*
X2587Y270D01*
X2596Y271D01*
X2605Y274D01*
X2612Y280D01*
X2618Y287D01*
X2621Y296D01*
X2622Y305D01*
X2621Y314D01*
X2618Y323D01*
X2612Y330D01*
X2605Y336D01*
X2596Y339D01*
X2587Y340D01*
X2578Y339D01*
X2569Y336D01*
X2562Y330D01*
X2559Y326D01*
X2553D01*
X2432Y448D01*
X2433Y450D01*
X2434Y459D01*
X2433Y468D01*
X2430Y477D01*
X2424Y484D01*
X2417Y490D01*
X2408Y493D01*
X2399Y494D01*
D02*
G37*
G36*
X338Y351D02*
X324Y349D01*
X311Y345D01*
X299Y339D01*
X288Y330D01*
X280Y320D01*
X273Y307D01*
X269Y294D01*
X268Y280D01*
X269Y267D01*
X273Y254D01*
X280Y241D01*
X288Y231D01*
X299Y222D01*
X311Y216D01*
X324Y212D01*
X338Y210D01*
X352Y212D01*
X365Y216D01*
X377Y222D01*
X388Y231D01*
X396Y241D01*
X403Y254D01*
X407Y267D01*
X408Y280D01*
X407Y294D01*
X403Y307D01*
X396Y320D01*
X388Y330D01*
X377Y339D01*
X365Y345D01*
X352Y349D01*
X338Y351D01*
D02*
G37*
G36*
X700Y162D02*
X687Y161D01*
X675Y156D01*
X664Y148D01*
X656Y137D01*
X651Y125D01*
X650Y112D01*
X651Y99D01*
X656Y87D01*
X664Y76D01*
X675Y68D01*
X687Y63D01*
X700Y62D01*
X713Y63D01*
X725Y68D01*
X736Y76D01*
X744Y87D01*
X749Y99D01*
X750Y112D01*
X749Y125D01*
X744Y137D01*
X736Y148D01*
X725Y156D01*
X713Y161D01*
X700Y162D01*
D02*
G37*
G36*
X3025Y158D02*
X3014Y157D01*
X3003Y154D01*
X2993Y148D01*
X2984Y141D01*
X2977Y132D01*
X2971Y122D01*
X2968Y111D01*
X2967Y100D01*
X2968Y89D01*
X2971Y78D01*
X2977Y68D01*
X2984Y59D01*
X2993Y52D01*
X3003Y46D01*
X3014Y43D01*
X3025Y42D01*
X3036Y43D01*
X3047Y46D01*
X3057Y52D01*
X3066Y59D01*
X3073Y68D01*
X3079Y78D01*
X3082Y89D01*
X3083Y100D01*
X3082Y111D01*
X3079Y122D01*
X3073Y132D01*
X3066Y141D01*
X3057Y148D01*
X3047Y154D01*
X3036Y157D01*
X3025Y158D01*
D02*
G37*
G36*
X860D02*
X849Y157D01*
X838Y154D01*
X828Y148D01*
X819Y141D01*
X812Y132D01*
X806Y122D01*
X803Y111D01*
X802Y100D01*
X803Y89D01*
X806Y78D01*
X812Y68D01*
X819Y59D01*
X828Y52D01*
X838Y46D01*
X849Y43D01*
X860Y42D01*
X871Y43D01*
X882Y46D01*
X892Y52D01*
X901Y59D01*
X908Y68D01*
X914Y78D01*
X917Y89D01*
X918Y100D01*
X917Y111D01*
X914Y122D01*
X908Y132D01*
X901Y141D01*
X892Y148D01*
X882Y154D01*
X871Y157D01*
X860Y158D01*
D02*
G37*
G36*
X2286Y140D02*
X2273Y139D01*
X2261Y134D01*
X2250Y126D01*
X2242Y115D01*
X2237Y103D01*
X2236Y90D01*
X2237Y77D01*
X2242Y65D01*
X2250Y54D01*
X2261Y46D01*
X2273Y41D01*
X2286Y40D01*
X2299Y41D01*
X2311Y46D01*
X2322Y54D01*
X2330Y65D01*
X2335Y77D01*
X2336Y90D01*
X2335Y103D01*
X2330Y115D01*
X2322Y126D01*
X2311Y134D01*
X2299Y139D01*
X2286Y140D01*
D02*
G37*
%LPD*%
G36*
X1908Y1132D02*
X1906Y1130D01*
X1788D01*
X1783Y1128D01*
X1778Y1125D01*
X1724Y1072D01*
X1721Y1067D01*
X1720Y1061D01*
X1721Y1055D01*
X1724Y1050D01*
X1729Y1047D01*
X1735Y1046D01*
X1741Y1047D01*
X1746Y1050D01*
X1795Y1099D01*
X1894D01*
X1897Y1096D01*
Y1081D01*
X1892Y1080D01*
X1887Y1077D01*
X1872Y1062D01*
X1870Y1063D01*
X1861Y1064D01*
X1852Y1063D01*
X1843Y1060D01*
X1836Y1054D01*
X1830Y1047D01*
X1829Y1044D01*
X1821D01*
X1815Y1043D01*
X1810Y1040D01*
X1741Y971D01*
X1739Y972D01*
X1731Y976D01*
X1722Y977D01*
X1713Y976D01*
X1704Y972D01*
X1697Y967D01*
X1691Y959D01*
X1688Y951D01*
X1686Y942D01*
X1687Y937D01*
X1662Y912D01*
X1659Y907D01*
X1657Y901D01*
Y837D01*
X1632D01*
Y790D01*
X1688D01*
Y821D01*
X1688Y822D01*
Y894D01*
X1705Y911D01*
X1713Y908D01*
X1722Y906D01*
X1731Y908D01*
X1733Y908D01*
X1736Y904D01*
X1728Y897D01*
X1725Y892D01*
X1724Y886D01*
Y823D01*
X1721Y822D01*
X1714Y816D01*
X1708Y809D01*
X1705Y800D01*
X1704Y791D01*
X1705Y782D01*
X1708Y775D01*
X1706Y771D01*
X1705Y770D01*
X1688D01*
Y778D01*
X1632D01*
Y733D01*
X1604D01*
Y750D01*
X1591D01*
Y804D01*
X1615Y827D01*
X1618Y832D01*
X1619Y838D01*
Y1021D01*
X1630Y1031D01*
X1632Y1030D01*
X1641Y1029D01*
X1650Y1030D01*
X1659Y1033D01*
X1666Y1039D01*
X1672Y1046D01*
X1675Y1055D01*
X1676Y1064D01*
X1675Y1073D01*
X1672Y1082D01*
X1666Y1089D01*
X1659Y1095D01*
X1650Y1098D01*
X1641Y1099D01*
X1638Y1099D01*
X1635Y1104D01*
X1636Y1112D01*
X1635Y1121D01*
X1632Y1130D01*
X1630Y1132D01*
X1632Y1137D01*
X1905D01*
X1908Y1132D01*
D02*
G37*
D15*
X2027Y1239D02*
X2067D01*
X2007Y1259D02*
X2027Y1239D01*
X2001Y1259D02*
X2007D01*
X2241Y963D02*
Y980D01*
X2263Y1002D01*
X2299D01*
X2299Y1002D01*
X2104Y665D02*
X2241Y802D01*
Y963D01*
X2299D01*
X2307Y798D02*
Y800D01*
X2544Y725D02*
Y728D01*
X2309Y794D02*
X2400D01*
X2306Y797D02*
X2309Y794D01*
X2306Y797D02*
X2307Y798D01*
X2485Y666D02*
X2544Y725D01*
X2447Y666D02*
X2485D01*
X2127Y983D02*
X2127Y982D01*
X2168Y912D02*
Y1008D01*
X2299Y1278D02*
X2321D01*
X2385Y1342D01*
Y1408D01*
X2050Y1313D02*
X2056Y1319D01*
X1827Y1313D02*
X2050D01*
X1802Y1288D02*
X1827Y1313D01*
X2056Y1319D02*
Y1322D01*
X2085Y1351D01*
Y1408D01*
X2172Y1145D02*
Y1321D01*
X2085Y1408D02*
X2172Y1321D01*
X2185Y1408D02*
X2190Y1403D01*
Y1138D02*
Y1403D01*
X2299Y1258D02*
X2300Y1258D01*
X2337Y1260D02*
X2485Y1408D01*
X2298Y1260D02*
X2337D01*
X2298D02*
X2299Y1258D01*
X2113Y1061D02*
X2190Y1138D01*
X2067Y1061D02*
X2113D01*
X2108Y1081D02*
X2172Y1145D01*
X2067Y1081D02*
X2108D01*
X2067Y1081D02*
X2067Y1081D01*
X1802Y1253D02*
Y1288D01*
X1798Y1249D02*
X1802Y1253D01*
X2920Y1118D02*
X3006Y1204D01*
X2705Y1118D02*
X2920D01*
X2704Y1119D02*
X2705Y1118D01*
X2299Y1120D02*
X2321D01*
X2323Y1119D01*
X2704D01*
X2790Y1003D02*
X2792Y1005D01*
X2907D02*
X2981Y1079D01*
X2792Y1005D02*
X2907D01*
X2981Y1079D02*
X3006Y1104D01*
X2981Y1079D02*
X2981D01*
X1962Y514D02*
X2238D01*
X2455Y698D02*
Y739D01*
X2400Y794D02*
X2455Y739D01*
X2383Y863D02*
X2391Y855D01*
X2410D01*
X2477Y788D01*
X1519Y668D02*
X1603D01*
X2223Y809D02*
Y1024D01*
X2198Y881D02*
Y1065D01*
X2116Y799D02*
X2198Y881D01*
X2046Y790D02*
X2168Y912D01*
X2273Y943D02*
X2299D01*
X2259Y929D02*
X2273Y943D01*
X2259Y741D02*
Y929D01*
X2097Y683D02*
X2223Y809D01*
X1994Y683D02*
X2097D01*
X2223Y1024D02*
X2260Y1061D01*
X2299D01*
X2038Y665D02*
X2104D01*
X2005Y633D02*
X2038Y665D01*
X2001Y633D02*
X2005D01*
X2259Y741D02*
X2406Y594D01*
X2426D01*
X2434Y586D01*
X2438Y676D02*
X2447Y666D01*
X2477Y786D02*
Y788D01*
X2418Y670D02*
X2470Y618D01*
X2549D01*
X2476Y563D02*
X2680D01*
X2740Y623D01*
X2457Y540D02*
X2538Y459D01*
X2399D02*
X2547Y311D01*
X2581D02*
X2587Y305D01*
X2547Y311D02*
X2581D01*
X2456Y563D02*
X2457Y562D01*
Y540D02*
Y562D01*
X2417Y697D02*
X2418Y696D01*
Y670D02*
Y696D01*
X2438Y676D02*
Y682D01*
X2437Y683D02*
X2438Y682D01*
X2437Y683D02*
Y697D01*
X2455Y698D02*
X2456Y697D01*
X2436Y564D02*
X2437Y563D01*
X2436Y564D02*
Y581D01*
X2434Y583D02*
X2436Y581D01*
X2434Y583D02*
Y586D01*
X2476Y697D02*
X2477Y698D01*
Y783D01*
X2299Y943D02*
X2299Y943D01*
X2170Y648D02*
X2274D01*
X2100Y578D02*
X2170Y648D01*
X2106Y875D02*
Y942D01*
X1999Y769D02*
X2106Y875D01*
X1992Y776D02*
X1999Y769D01*
X1992Y776D02*
Y778D01*
X2134Y1042D02*
X2168Y1008D01*
X2067Y1042D02*
X2134D01*
X2046Y754D02*
Y790D01*
X2036Y744D02*
X2046Y754D01*
X2037Y578D02*
X2100D01*
X2198Y1065D02*
X2273Y1140D01*
X2299D02*
X2299Y1140D01*
X2273Y1140D02*
X2299D01*
X1993Y624D02*
X2001Y633D01*
X1993Y620D02*
Y624D01*
X2299Y963D02*
X2299Y963D01*
X2364D01*
X2417Y921D02*
Y998D01*
X2367Y1023D02*
X2370Y1020D01*
X2395D01*
X2417Y998D01*
X2300Y1081D02*
X2573D01*
X2617Y1037D01*
X2607D02*
X2617D01*
X2587Y945D02*
Y1006D01*
X2609Y1029D02*
Y1034D01*
X2587Y1006D02*
X2609Y1029D01*
X2299Y1101D02*
X2697D01*
X2782Y1016D01*
X2782D01*
X2790Y1007D01*
Y1003D02*
Y1007D01*
X2126Y1168D02*
Y1196D01*
X2067Y1199D02*
X2089D01*
X2092Y1202D01*
X2120D01*
X2126Y1196D01*
X1914Y1114D02*
X1925Y1126D01*
X1735Y1061D02*
X1788Y1114D01*
X1914D01*
X1542Y1249D02*
X1545Y1252D01*
X1703D01*
X1706Y1255D01*
X1925Y1126D02*
X1975D01*
X1577Y1170D02*
X2022D01*
X1585Y1152D02*
X2015D01*
X1572Y1190D02*
X2028D01*
X1353Y921D02*
X1585Y1152D01*
X1335Y928D02*
X1577Y1170D01*
X1317Y935D02*
X1572Y1190D01*
X2790Y945D02*
Y999D01*
X1979Y1120D02*
X2067D01*
X1997Y1071D02*
X2027Y1101D01*
X2067D01*
X1975Y1070D02*
X1976Y1071D01*
X1974Y1069D02*
X1975Y1070D01*
X1714Y942D02*
X1722D01*
X2357Y1179D02*
X2383Y1205D01*
X2299Y1179D02*
X2357D01*
X2268Y1160D02*
X2299D01*
X2240Y1188D02*
Y1214D01*
Y1188D02*
X2268Y1160D01*
X2235Y1219D02*
X2240Y1214D01*
X2299Y1160D02*
X2299Y1160D01*
X1921Y1066D02*
X1925Y1070D01*
X1861Y1029D02*
X1898Y1066D01*
X1921D01*
X1925Y1070D02*
X1926Y1069D01*
X1974D01*
X1821Y1029D02*
X1861D01*
X1746Y954D02*
X1821Y1029D01*
X1816Y963D02*
Y968D01*
X1739Y886D02*
X1816Y963D01*
X2126Y1168D02*
X2132Y1162D01*
X2030Y1022D02*
X2067D01*
X1972Y1043D02*
X2009D01*
X1807Y879D02*
X1972Y1043D01*
X2030Y962D02*
X2067D01*
X2009Y1043D02*
X2030Y1022D01*
X1992Y995D02*
Y1003D01*
X2067Y962D02*
X2067Y963D01*
X1991Y924D02*
X2030Y962D01*
X1515Y668D02*
X1519D01*
X1451Y733D02*
X1515Y668D01*
X1451Y733D02*
Y863D01*
X2067Y1022D02*
X2067Y1022D01*
X2067Y983D02*
X2127D01*
X2104Y943D02*
X2106Y942D01*
X2067Y943D02*
X2104D01*
X1807Y785D02*
Y879D01*
X1673Y901D02*
X1714Y942D01*
X1673Y822D02*
Y901D01*
X1668Y818D02*
X1673Y822D01*
X1739Y791D02*
Y886D01*
X1524Y783D02*
X1586Y845D01*
X1523Y728D02*
X1524Y729D01*
Y783D01*
X1576Y726D02*
Y810D01*
X1604Y838D01*
Y1027D01*
X1586Y845D02*
Y1034D01*
X1574Y724D02*
X1580Y718D01*
X1519Y728D02*
X1523D01*
X1604Y1027D02*
X1641Y1064D01*
X1601Y1049D02*
Y1112D01*
X1586Y1034D02*
X1601Y1049D01*
X1519Y668D02*
X1603Y584D01*
X1613Y678D02*
X1669D01*
X1603Y668D02*
X1613Y678D01*
X1553Y698D02*
X1669D01*
X1523Y728D02*
X1553Y698D01*
X1669Y718D02*
X1669Y717D01*
X1580Y718D02*
X1669D01*
X1709Y754D02*
X1747Y716D01*
X1871Y781D02*
Y874D01*
X1992Y995D01*
X1747Y716D02*
X1776D01*
X1805Y745D01*
X1835D01*
X1871Y781D01*
X1835Y717D02*
X1835Y718D01*
X1875D01*
X1882Y724D02*
Y730D01*
X1875Y718D02*
X1882Y724D01*
Y730D02*
X1890Y739D01*
X1951Y727D02*
X1952Y726D01*
X1660Y754D02*
X1709D01*
X2067Y982D02*
X2067Y983D01*
X2028Y1190D02*
X2038Y1180D01*
X2022Y1170D02*
X2032Y1160D01*
X2015Y1152D02*
X2027Y1140D01*
X1353Y560D02*
Y921D01*
X1335Y424D02*
Y928D01*
X1317Y557D02*
Y935D01*
X1747Y716D02*
X1766Y698D01*
X1971Y1219D02*
X2067D01*
X1919Y1271D02*
X1971Y1219D01*
X2067Y1239D02*
X2067Y1238D01*
X1199Y438D02*
X1317Y557D01*
X1353Y560D02*
X1490Y423D01*
X1186Y426D02*
X1190D01*
X1199Y434D01*
Y438D01*
X1490Y423D02*
X1494D01*
X2038Y1180D02*
X2067D01*
X2067Y1179D01*
X2032Y1160D02*
X2067D01*
X2067Y1160D01*
X2027Y1140D02*
X2067D01*
X1976Y1071D02*
X1997D01*
X2299Y1081D02*
X2300Y1081D01*
X1603Y584D02*
X1705D01*
X1761D02*
X1761Y584D01*
Y668D01*
X1771Y678D01*
X1835D01*
X1835Y678D01*
X1873D01*
X1835Y658D02*
X1890D01*
X1904Y672D01*
X1766Y698D02*
X1835D01*
X1904Y672D02*
X1924D01*
X1492Y361D02*
X1494Y363D01*
X1492Y316D02*
Y361D01*
X1333Y363D02*
X1335Y365D01*
X1333Y314D02*
Y363D01*
X1186Y366D02*
X1186Y366D01*
X1186Y313D02*
Y366D01*
X1835Y639D02*
X1919D01*
X1933Y624D01*
Y620D02*
Y624D01*
X2788Y943D02*
X2790Y945D01*
X2299Y1061D02*
X2300Y1061D01*
X2329D01*
X2352Y1038D01*
X2353D01*
X2367Y1024D01*
Y1023D02*
Y1024D01*
X2299Y1022D02*
X2366D01*
X2367Y1023D01*
X2364Y963D02*
X2367Y960D01*
X2417Y921D02*
X2445Y893D01*
X2469D01*
X2476Y886D01*
X2535Y946D02*
X2536Y945D01*
Y886D02*
Y945D01*
Y886D02*
X2587D01*
X2587Y886D01*
X2646Y945D02*
X2648Y943D01*
X2646Y945D02*
X2646Y945D01*
Y886D02*
Y945D01*
Y886D02*
X2647Y886D01*
X2648Y943D02*
X2733D01*
X2731Y945D02*
Y1003D01*
Y945D02*
X2733Y943D01*
D21*
X1975Y1070D02*
D03*
Y1126D02*
D03*
X1925Y1070D02*
D03*
Y1125D02*
D03*
D22*
X1660Y754D02*
D03*
Y814D02*
D03*
X1519Y728D02*
D03*
Y668D02*
D03*
X1576Y726D02*
D03*
Y667D02*
D03*
X1494Y363D02*
D03*
Y423D02*
D03*
X1335Y365D02*
D03*
Y424D02*
D03*
X1186Y366D02*
D03*
Y426D02*
D03*
D24*
X2532Y786D02*
D03*
X2477D02*
D03*
X1705Y584D02*
D03*
X1761D02*
D03*
X2480Y946D02*
D03*
X2535D02*
D03*
X2788Y943D02*
D03*
X2733D02*
D03*
D26*
X2536Y886D02*
D03*
X2476D02*
D03*
X1994Y683D02*
D03*
X1934D02*
D03*
X1993Y620D02*
D03*
X1933D02*
D03*
X1950Y739D02*
D03*
X1890D02*
D03*
X2587Y886D02*
D03*
X2647D02*
D03*
X2587Y945D02*
D03*
X2646D02*
D03*
X2790Y1003D02*
D03*
X2731D02*
D03*
D28*
X2367Y960D02*
D03*
Y1023D02*
D03*
D59*
X2585Y1408D02*
D03*
X1798Y1249D02*
D03*
X1283D02*
D03*
D60*
X2485Y1408D02*
D03*
X2385D02*
D03*
X2285D02*
D03*
X2185D02*
D03*
X2085D02*
D03*
X3006Y1204D02*
D03*
X1542Y1249D02*
D03*
Y1427D02*
D03*
X1798D02*
D03*
X1027Y1249D02*
D03*
Y1427D02*
D03*
X1283D02*
D03*
D61*
X2861Y1404D02*
D03*
X2725Y1406D02*
D03*
X1931Y1393D02*
D03*
X2286Y90D02*
D03*
X700Y112D02*
D03*
D62*
X3006Y1104D02*
D03*
D63*
X338Y1219D02*
D03*
Y280D02*
D03*
D64*
X2307Y800D02*
D03*
X2544Y728D02*
D03*
X2127Y982D02*
D03*
X2238Y514D02*
D03*
X1962D02*
D03*
X2116Y799D02*
D03*
X2383Y863D02*
D03*
X2399Y459D02*
D03*
X2046Y743D02*
D03*
X2265Y651D02*
D03*
X2549Y618D02*
D03*
X2740Y623D02*
D03*
X2538Y459D02*
D03*
X2728Y456D02*
D03*
X2587Y305D02*
D03*
X1706Y1255D02*
D03*
X1735Y1061D02*
D03*
X2037Y578D02*
D03*
X1992Y778D02*
D03*
X2222Y593D02*
D03*
X347Y604D02*
D03*
X353Y888D02*
D03*
X2617Y1037D02*
D03*
X2383Y1205D02*
D03*
X2235Y1219D02*
D03*
X1816Y968D02*
D03*
X1861Y1029D02*
D03*
X1992Y1003D02*
D03*
X1991Y924D02*
D03*
X1451Y863D02*
D03*
X2132Y1162D02*
D03*
X1722Y942D02*
D03*
X1641Y1064D02*
D03*
X1739Y791D02*
D03*
X1807Y785D02*
D03*
X1601Y1112D02*
D03*
X1919Y1271D02*
D03*
X2001Y1259D02*
D03*
X1338Y36D02*
D03*
X1186Y313D02*
D03*
X1333Y314D02*
D03*
X1492Y316D02*
D03*
X2896Y337D02*
D03*
X624Y965D02*
D03*
D65*
X3025Y1400D02*
D03*
X860D02*
D03*
Y100D02*
D03*
X3025D02*
D03*
D66*
X2417Y697D02*
D03*
X2437D02*
D03*
X2456D02*
D03*
X2476D02*
D03*
X2417Y563D02*
D03*
X2437D02*
D03*
X2456D02*
D03*
X2476D02*
D03*
D67*
X338Y750D02*
D03*
D68*
X2067Y923D02*
D03*
Y943D02*
D03*
Y963D02*
D03*
Y982D02*
D03*
Y1002D02*
D03*
Y1022D02*
D03*
Y1042D02*
D03*
Y1061D02*
D03*
Y1081D02*
D03*
Y1101D02*
D03*
Y1120D02*
D03*
Y1140D02*
D03*
Y1160D02*
D03*
Y1179D02*
D03*
Y1199D02*
D03*
Y1219D02*
D03*
Y1238D02*
D03*
Y1258D02*
D03*
Y1278D02*
D03*
X2299D02*
D03*
Y1258D02*
D03*
Y1238D02*
D03*
Y1219D02*
D03*
Y1199D02*
D03*
Y1179D02*
D03*
Y1160D02*
D03*
Y1140D02*
D03*
Y1120D02*
D03*
Y1101D02*
D03*
Y1081D02*
D03*
Y1061D02*
D03*
Y1042D02*
D03*
Y1022D02*
D03*
Y1002D02*
D03*
Y982D02*
D03*
Y963D02*
D03*
Y943D02*
D03*
Y923D02*
D03*
D69*
X1669Y639D02*
D03*
Y658D02*
D03*
Y678D02*
D03*
Y698D02*
D03*
Y717D02*
D03*
X1835Y639D02*
D03*
Y658D02*
D03*
Y678D02*
D03*
Y698D02*
D03*
Y717D02*
D03*
M02*
