M48
;Layer_Color=9474304
;FILE_FORMAT=2:3
INCH,LZ
;TYPE=PLATED
T1F00S00C0.028
T2F00S00C0.035
T3F00S00C0.039
T4F00S00C0.040
T5F00S00C0.073
T6F00S00C0.096
%
T01
X00347Y00604
X00353Y00888
X00624Y00965
X01451Y00863
X01492Y00316
X01333Y00314
X01186Y00313
X01338Y00036
X01962Y00514
X02037Y00578
X02046Y00743
X01992Y00778
X02116Y00799
X02307Y008
X02383Y00863
X02544Y00728
X02549Y00618
X02538Y00459
X02399
X02238Y00514
X02222Y00593
X02265Y00651
X02127Y00982
X01992Y01003
X01991Y00924
X01816Y00968
X01861Y01029
X01735Y01061
X01641Y01064
X01601Y01112
X01706Y01255
X01919Y01271
X02001Y01259
X02132Y01162
X02235Y01219
X02383Y01205
X02617Y01037
X0274Y00623
X02728Y00456
X02896Y00337
X02587Y00305
X01807Y00785
X01739Y00791
X01722Y00942
T02
X02085Y01408
X02185
X02285
X02385
X02485
X02585
X03006Y01204
Y01104
T03
X01027Y01249
Y01427
X01283
Y01249
X01542
Y01427
X01798
Y01249
T04
X007Y00112
X02286Y0009
X01931Y01393
X02725Y01406
X02861Y01404
T05
X00338Y0028
Y01219
T06
X0086Y001
Y014
X03025
Y001
M30
