G04*
G04 #@! TF.GenerationSoftware,Altium Limited,Altium Designer,20.1.7 (139)*
G04*
G04 Layer_Color=32896*
%FSLAX23Y23*%
%MOIN*%
G70*
G04*
G04 #@! TF.SameCoordinates,EDBD68C9-D3AA-458A-9AD7-9DFE3E0C80AD*
G04*
G04*
G04 #@! TF.FilePolarity,Positive*
G04*
G01*
G75*
%ADD13C,0.008*%
G36*
X2661Y716D02*
X2661Y716D01*
X2661Y716D01*
X2661Y716D01*
X2661Y716D01*
X2662Y716D01*
X2662Y716D01*
X2662Y716D01*
X2662Y715D01*
X2663Y715D01*
X2663Y715D01*
X2663Y715D01*
X2663Y715D01*
X2663Y715D01*
X2663Y715D01*
X2663Y715D01*
X2663Y715D01*
X2663Y715D01*
X2663Y715D01*
X2663Y714D01*
X2663Y714D01*
X2664Y714D01*
X2664Y714D01*
X2664Y713D01*
X2664Y713D01*
Y713D01*
Y713D01*
X2664Y713D01*
X2664Y713D01*
X2664Y713D01*
X2663Y713D01*
X2663Y712D01*
X2663Y712D01*
X2663Y712D01*
X2663Y712D01*
X2663Y712D01*
X2663Y712D01*
X2663Y712D01*
X2663Y711D01*
X2663Y711D01*
X2663Y711D01*
X2663Y711D01*
X2662Y711D01*
X2662Y711D01*
X2662Y711D01*
X2662Y711D01*
X2662Y711D01*
X2662Y710D01*
X2662Y710D01*
X2662Y710D01*
X2662Y710D01*
X2661Y710D01*
X2661Y710D01*
X2661Y709D01*
X2661Y709D01*
X2661Y709D01*
X2661Y709D01*
X2661Y709D01*
X2661Y709D01*
X2661Y709D01*
X2660Y709D01*
X2660Y709D01*
X2660Y709D01*
X2660Y708D01*
X2660Y708D01*
X2659Y708D01*
X2659Y708D01*
X2659Y708D01*
X2659Y708D01*
X2659Y708D01*
X2659Y708D01*
X2659Y708D01*
X2659Y708D01*
X2659Y707D01*
X2664D01*
Y706D01*
X2657D01*
Y706D01*
Y706D01*
Y706D01*
X2657Y707D01*
X2657Y707D01*
X2657Y707D01*
X2657Y707D01*
X2657Y707D01*
Y707D01*
X2657Y707D01*
X2657Y707D01*
X2658Y707D01*
X2658Y708D01*
X2658Y708D01*
X2658Y708D01*
X2658Y708D01*
X2658Y708D01*
Y708D01*
X2658Y708D01*
X2658Y709D01*
X2658Y709D01*
X2659Y709D01*
X2659Y709D01*
X2659Y709D01*
X2659Y710D01*
X2660Y710D01*
X2660Y710D01*
X2660Y710D01*
X2660Y710D01*
X2660Y710D01*
X2660Y710D01*
X2660Y710D01*
X2660Y710D01*
X2661Y711D01*
X2661Y711D01*
X2661Y711D01*
X2661Y711D01*
X2662Y712D01*
X2662Y712D01*
X2662Y712D01*
Y712D01*
X2662Y712D01*
X2662Y712D01*
X2662Y712D01*
X2662Y712D01*
X2662Y712D01*
X2662Y713D01*
X2662Y713D01*
X2662Y713D01*
X2662Y713D01*
Y713D01*
Y713D01*
X2662Y713D01*
X2662Y714D01*
X2662Y714D01*
X2662Y714D01*
X2662Y714D01*
X2662Y714D01*
X2662Y714D01*
X2662Y715D01*
X2662Y715D01*
X2662Y715D01*
X2662Y715D01*
X2661Y715D01*
X2661Y715D01*
X2661Y715D01*
X2661Y715D01*
X2660D01*
X2660Y715D01*
X2660Y715D01*
X2660Y715D01*
X2660Y715D01*
X2660Y715D01*
X2659Y715D01*
X2659Y714D01*
X2659Y714D01*
X2659Y714D01*
X2659Y714D01*
X2659Y714D01*
X2659Y714D01*
X2659Y714D01*
X2659Y713D01*
X2659Y713D01*
X2657Y713D01*
Y713D01*
X2658Y713D01*
Y713D01*
X2658Y713D01*
X2658Y713D01*
X2658Y714D01*
X2658Y714D01*
X2658Y714D01*
X2658Y714D01*
X2658Y715D01*
X2658Y715D01*
X2658Y715D01*
X2658Y715D01*
X2658Y715D01*
X2658Y715D01*
X2658Y715D01*
X2658Y715D01*
X2659Y715D01*
X2659Y715D01*
X2659Y715D01*
X2659Y715D01*
X2659Y716D01*
X2659Y716D01*
X2659Y716D01*
X2659Y716D01*
X2660Y716D01*
X2660Y716D01*
X2660Y716D01*
X2660Y716D01*
X2661Y716D01*
X2661D01*
X2661Y716D01*
D02*
G37*
G36*
X2652Y716D02*
X2652D01*
X2652Y716D01*
X2652Y716D01*
X2652Y716D01*
X2653Y716D01*
X2653Y716D01*
X2654Y716D01*
X2654Y716D01*
X2654Y715D01*
X2654Y715D01*
X2654Y715D01*
X2654Y715D01*
X2654Y715D01*
X2654Y715D01*
X2654Y715D01*
X2655Y715D01*
X2655Y715D01*
X2655Y714D01*
X2655Y714D01*
X2656Y714D01*
Y714D01*
X2656Y714D01*
X2656Y714D01*
X2656Y713D01*
X2656Y713D01*
X2656Y713D01*
X2656Y713D01*
X2656Y713D01*
X2656Y713D01*
X2656Y713D01*
X2656Y712D01*
X2656Y712D01*
X2656Y712D01*
X2656Y711D01*
Y711D01*
Y711D01*
Y711D01*
Y711D01*
X2656Y711D01*
Y711D01*
X2656Y711D01*
X2656Y710D01*
X2656Y710D01*
X2656Y710D01*
X2656Y709D01*
X2656Y709D01*
Y709D01*
X2656Y709D01*
X2656Y709D01*
X2656Y709D01*
X2656Y709D01*
X2656Y709D01*
X2656Y708D01*
X2655Y708D01*
X2655Y708D01*
X2655Y708D01*
X2655Y707D01*
X2655D01*
X2655Y707D01*
X2655Y707D01*
X2655Y707D01*
X2655Y707D01*
X2655Y707D01*
X2655Y707D01*
X2656Y707D01*
X2656Y707D01*
X2656Y707D01*
X2656Y706D01*
X2656Y706D01*
X2656D01*
X2656Y706D01*
X2656Y706D01*
X2656Y706D01*
X2656Y706D01*
X2656Y706D01*
X2656Y706D01*
X2655Y706D01*
X2655Y706D01*
X2655Y706D01*
X2654Y706D01*
X2654Y707D01*
X2654D01*
X2654Y707D01*
X2654Y707D01*
X2654Y707D01*
X2654Y707D01*
X2654Y707D01*
X2653Y707D01*
X2653Y706D01*
X2653Y706D01*
X2653Y706D01*
X2653Y706D01*
X2652Y706D01*
X2652Y706D01*
X2652Y706D01*
X2651D01*
X2651Y706D01*
X2651D01*
X2651Y706D01*
X2651Y706D01*
X2651Y706D01*
X2650Y706D01*
X2650Y706D01*
X2650Y707D01*
X2649Y707D01*
X2649Y707D01*
X2649Y707D01*
X2649Y707D01*
X2649Y707D01*
X2649Y707D01*
X2649Y707D01*
X2649Y707D01*
X2649Y707D01*
X2648Y707D01*
X2648Y708D01*
X2648Y708D01*
X2648Y709D01*
Y709D01*
X2648Y709D01*
X2648Y709D01*
X2648Y709D01*
X2648Y709D01*
X2647Y709D01*
X2647Y709D01*
X2647Y709D01*
X2647Y709D01*
X2647Y710D01*
X2647Y710D01*
X2647Y710D01*
X2647Y711D01*
X2647Y711D01*
Y711D01*
Y711D01*
Y711D01*
X2647Y711D01*
Y711D01*
X2647Y712D01*
X2647Y712D01*
X2647Y712D01*
X2647Y712D01*
X2647Y713D01*
X2647Y713D01*
X2648Y714D01*
X2648Y714D01*
X2648Y714D01*
X2648Y714D01*
X2648Y714D01*
X2648Y714D01*
X2648Y714D01*
X2648Y714D01*
X2648Y715D01*
X2649Y715D01*
X2649Y715D01*
X2649Y715D01*
X2649Y715D01*
X2649Y715D01*
X2649Y715D01*
X2649Y716D01*
X2650Y716D01*
X2650Y716D01*
X2650Y716D01*
X2650Y716D01*
X2650Y716D01*
X2650Y716D01*
X2651Y716D01*
X2651Y716D01*
X2651Y716D01*
X2652D01*
X2652Y716D01*
D02*
G37*
G36*
X2885Y580D02*
X2885D01*
X2885Y580D01*
X2885Y580D01*
X2885Y580D01*
X2886Y580D01*
X2886Y580D01*
X2886Y580D01*
X2886Y580D01*
X2886Y580D01*
X2886Y580D01*
X2886Y580D01*
X2886Y580D01*
X2887Y580D01*
X2887Y579D01*
X2887Y579D01*
X2887Y579D01*
X2887Y579D01*
X2887Y578D01*
X2887Y578D01*
X2886Y578D01*
Y578D01*
X2886Y578D01*
X2886Y578D01*
X2886Y578D01*
X2886Y578D01*
X2886Y578D01*
X2886Y579D01*
X2886Y579D01*
X2886Y579D01*
X2886Y579D01*
X2886Y579D01*
X2885Y579D01*
X2885Y579D01*
X2885Y579D01*
X2885Y579D01*
X2885Y579D01*
X2884Y579D01*
X2884D01*
X2884Y579D01*
X2884Y579D01*
X2884Y579D01*
X2884Y579D01*
X2884Y579D01*
X2883Y579D01*
X2883Y579D01*
X2883Y579D01*
X2883Y579D01*
X2883Y579D01*
X2883Y579D01*
X2883Y578D01*
X2883Y578D01*
X2883Y578D01*
Y578D01*
X2883Y578D01*
X2883Y578D01*
X2883Y578D01*
X2883Y578D01*
X2882Y578D01*
X2882Y577D01*
X2882Y577D01*
X2882Y577D01*
X2882Y577D01*
X2882Y577D01*
X2882Y577D01*
X2882Y576D01*
X2882Y576D01*
X2882Y576D01*
Y576D01*
X2882Y576D01*
X2882Y576D01*
X2882Y576D01*
X2883Y576D01*
X2883Y576D01*
X2883Y576D01*
X2883Y576D01*
X2883Y577D01*
X2883D01*
X2883Y577D01*
X2883Y577D01*
X2884Y577D01*
X2884Y577D01*
X2884Y577D01*
X2884Y577D01*
X2884Y577D01*
X2885Y577D01*
X2885D01*
X2885Y577D01*
X2885Y577D01*
X2885Y577D01*
X2885Y577D01*
X2885Y577D01*
X2886Y577D01*
X2886Y577D01*
X2886Y577D01*
X2886Y576D01*
X2886Y576D01*
X2886Y576D01*
X2887Y576D01*
X2887Y576D01*
X2887Y576D01*
X2887Y576D01*
X2887Y576D01*
X2887Y576D01*
X2887Y576D01*
X2887Y576D01*
X2887Y575D01*
X2887Y575D01*
X2887Y575D01*
X2887Y575D01*
X2887Y575D01*
X2887Y575D01*
X2887Y574D01*
X2887Y574D01*
X2887Y574D01*
Y574D01*
Y574D01*
Y574D01*
Y574D01*
X2887Y574D01*
Y574D01*
X2887Y573D01*
X2887Y573D01*
X2887Y573D01*
X2887Y572D01*
X2887Y572D01*
Y572D01*
X2887Y572D01*
X2887Y572D01*
X2887Y572D01*
X2887Y572D01*
X2887Y572D01*
X2887Y572D01*
X2886Y571D01*
X2886Y571D01*
X2886Y571D01*
X2886D01*
X2886Y571D01*
X2886Y571D01*
X2886Y571D01*
X2886Y571D01*
X2885Y571D01*
X2885Y571D01*
X2885Y571D01*
X2885Y571D01*
X2884Y571D01*
X2884D01*
X2884Y571D01*
X2884D01*
X2884Y571D01*
X2884Y571D01*
X2884Y571D01*
X2884Y571D01*
X2883Y571D01*
X2883Y571D01*
X2883Y571D01*
X2883Y571D01*
X2883Y571D01*
X2882Y571D01*
X2882Y571D01*
X2882Y572D01*
X2882Y572D01*
X2882Y572D01*
X2882Y572D01*
X2882Y572D01*
X2882Y572D01*
X2882Y572D01*
X2882Y572D01*
X2882Y573D01*
X2881Y573D01*
X2881Y573D01*
X2881Y573D01*
X2881Y574D01*
X2881Y574D01*
X2881Y574D01*
X2881Y575D01*
X2881Y575D01*
Y575D01*
Y575D01*
Y575D01*
Y575D01*
X2881Y575D01*
Y576D01*
X2881Y576D01*
X2881Y576D01*
X2881Y576D01*
X2881Y577D01*
X2881Y577D01*
X2881Y577D01*
X2881Y578D01*
X2882Y578D01*
X2882Y578D01*
X2882Y579D01*
X2882Y579D01*
X2882Y579D01*
X2882Y579D01*
X2882Y579D01*
X2882Y579D01*
X2882Y579D01*
X2882Y580D01*
X2882Y580D01*
X2883Y580D01*
X2883Y580D01*
X2883Y580D01*
X2883Y580D01*
X2883Y580D01*
X2883Y580D01*
X2884Y580D01*
X2884Y580D01*
X2884Y580D01*
X2885Y580D01*
X2885D01*
X2885Y580D01*
D02*
G37*
G36*
X2880Y575D02*
Y575D01*
Y575D01*
Y575D01*
Y575D01*
X2879Y574D01*
Y574D01*
X2879Y574D01*
X2879Y574D01*
X2879Y574D01*
X2879Y573D01*
X2879Y573D01*
X2879Y573D01*
X2879Y572D01*
Y572D01*
X2879Y572D01*
X2879Y572D01*
X2879Y572D01*
X2879Y572D01*
X2879Y572D01*
X2879Y572D01*
X2879Y572D01*
X2878Y571D01*
X2878Y571D01*
X2878D01*
X2878Y571D01*
X2878Y571D01*
X2878Y571D01*
X2878Y571D01*
X2878Y571D01*
X2878Y571D01*
X2877Y571D01*
X2877Y571D01*
X2877Y571D01*
X2877Y571D01*
X2877Y571D01*
X2876Y571D01*
X2876Y571D01*
X2876Y571D01*
X2876D01*
X2876Y571D01*
X2875D01*
X2875Y571D01*
X2875Y571D01*
X2875Y571D01*
X2875Y571D01*
X2874Y571D01*
X2874Y571D01*
X2874Y571D01*
X2874D01*
X2874Y571D01*
X2873Y571D01*
X2873Y571D01*
X2873Y571D01*
X2873Y571D01*
X2873Y572D01*
X2873Y572D01*
X2873Y572D01*
X2872Y572D01*
Y572D01*
X2872Y572D01*
X2872Y572D01*
X2872Y573D01*
X2872Y573D01*
X2872Y573D01*
X2872Y573D01*
X2872Y573D01*
X2872Y573D01*
X2872Y573D01*
X2872Y574D01*
X2872Y574D01*
X2872Y574D01*
X2872Y574D01*
X2872Y575D01*
Y575D01*
Y580D01*
X2873D01*
Y575D01*
Y575D01*
Y575D01*
Y575D01*
Y575D01*
X2873Y574D01*
Y574D01*
X2873Y574D01*
X2873Y574D01*
X2873Y573D01*
X2873Y573D01*
X2873Y573D01*
X2873Y573D01*
X2874Y573D01*
X2874Y573D01*
X2874Y573D01*
X2874Y573D01*
X2874Y572D01*
X2874Y572D01*
X2874Y572D01*
X2874Y572D01*
X2874Y572D01*
X2874Y572D01*
X2874Y572D01*
X2875Y572D01*
X2875Y572D01*
X2875Y572D01*
X2875Y572D01*
X2876Y572D01*
X2876D01*
X2876Y572D01*
X2876D01*
X2876Y572D01*
X2876Y572D01*
X2877Y572D01*
X2877Y572D01*
X2877Y572D01*
X2878Y572D01*
X2878Y572D01*
X2878Y572D01*
X2878Y572D01*
X2878Y572D01*
X2878Y572D01*
X2878Y573D01*
X2878Y573D01*
X2878Y573D01*
X2878Y573D01*
X2878Y573D01*
X2878Y573D01*
X2878Y573D01*
X2878Y574D01*
X2878Y574D01*
X2878Y574D01*
X2878Y574D01*
Y575D01*
Y580D01*
X2880D01*
Y575D01*
D02*
G37*
G36*
X2670Y561D02*
X2669D01*
Y568D01*
X2669Y568D01*
X2669Y568D01*
X2668Y568D01*
X2668Y568D01*
X2668Y568D01*
X2668Y568D01*
X2668Y568D01*
X2667Y568D01*
X2667D01*
X2667Y568D01*
X2667Y567D01*
X2667Y567D01*
X2667Y567D01*
X2667Y567D01*
X2667Y567D01*
X2666Y567D01*
X2666Y567D01*
Y568D01*
X2666D01*
X2666Y568D01*
X2666Y568D01*
X2666Y568D01*
X2666Y568D01*
X2667Y568D01*
X2667Y568D01*
X2667Y569D01*
X2667Y569D01*
X2668Y569D01*
X2668Y569D01*
X2668Y569D01*
X2668Y569D01*
X2668Y569D01*
X2668Y569D01*
X2668Y569D01*
X2668Y570D01*
X2669Y570D01*
X2669Y570D01*
X2669Y570D01*
X2669Y570D01*
X2670D01*
Y561D01*
D02*
G37*
G36*
X2660Y571D02*
X2660D01*
X2660Y571D01*
X2660Y571D01*
X2660Y571D01*
X2661Y570D01*
X2661Y570D01*
X2662Y570D01*
X2662Y570D01*
X2662Y570D01*
X2662Y570D01*
X2662Y570D01*
X2662Y570D01*
X2662Y570D01*
X2662Y570D01*
X2662Y570D01*
X2663Y570D01*
X2663Y569D01*
X2663Y569D01*
X2663Y569D01*
X2664Y568D01*
Y568D01*
X2664Y568D01*
X2664Y568D01*
X2664Y568D01*
X2664Y568D01*
X2664Y568D01*
X2664Y568D01*
X2664Y567D01*
X2664Y567D01*
X2664Y567D01*
X2664Y567D01*
X2664Y567D01*
X2664Y566D01*
X2664Y566D01*
Y566D01*
Y566D01*
Y566D01*
Y565D01*
X2664Y565D01*
Y565D01*
X2664Y565D01*
X2664Y565D01*
X2664Y565D01*
X2664Y564D01*
X2664Y564D01*
X2664Y564D01*
Y564D01*
X2664Y563D01*
X2664Y563D01*
X2664Y563D01*
X2664Y563D01*
X2664Y563D01*
X2664Y563D01*
X2663Y563D01*
X2663Y562D01*
X2663Y562D01*
X2663Y562D01*
X2663D01*
X2663Y562D01*
X2663Y562D01*
X2663Y562D01*
X2663Y562D01*
X2663Y562D01*
X2663Y562D01*
X2663Y561D01*
X2664Y561D01*
X2664Y561D01*
X2664Y561D01*
X2664Y560D01*
X2664D01*
X2664Y560D01*
X2664Y560D01*
X2664Y560D01*
X2664Y560D01*
X2664Y560D01*
X2663Y560D01*
X2663Y560D01*
X2663Y561D01*
X2663Y561D01*
X2662Y561D01*
X2662Y561D01*
X2662D01*
X2662Y561D01*
X2662Y561D01*
X2662Y561D01*
X2662Y561D01*
X2661Y561D01*
X2661Y561D01*
X2661Y561D01*
X2661Y561D01*
X2661Y561D01*
X2660Y561D01*
X2660Y561D01*
X2660Y561D01*
X2660Y561D01*
X2659D01*
X2659Y561D01*
X2659D01*
X2659Y561D01*
X2659Y561D01*
X2659Y561D01*
X2658Y561D01*
X2658Y561D01*
X2658Y561D01*
X2657Y561D01*
X2657Y561D01*
X2657Y561D01*
X2657Y561D01*
X2657Y561D01*
X2657Y561D01*
X2657Y562D01*
X2657Y562D01*
X2657Y562D01*
X2656Y562D01*
X2656Y562D01*
X2656Y563D01*
X2656Y563D01*
Y563D01*
X2656Y563D01*
X2656Y563D01*
X2655Y563D01*
X2655Y563D01*
X2655Y564D01*
X2655Y564D01*
X2655Y564D01*
X2655Y564D01*
X2655Y564D01*
X2655Y564D01*
X2655Y565D01*
X2655Y565D01*
X2655Y566D01*
Y566D01*
Y566D01*
Y566D01*
X2655Y566D01*
Y566D01*
X2655Y566D01*
X2655Y566D01*
X2655Y567D01*
X2655Y567D01*
X2655Y567D01*
X2655Y568D01*
X2656Y568D01*
X2656Y568D01*
X2656Y568D01*
X2656Y568D01*
X2656Y568D01*
X2656Y569D01*
X2656Y569D01*
X2656Y569D01*
X2656Y569D01*
X2657Y569D01*
X2657Y570D01*
X2657Y570D01*
X2657Y570D01*
X2657Y570D01*
X2657Y570D01*
X2657Y570D01*
X2657Y570D01*
X2658Y570D01*
X2658Y570D01*
X2658Y570D01*
X2658Y570D01*
X2658Y570D01*
X2659Y571D01*
X2659Y571D01*
X2659Y571D01*
X2660D01*
X2660Y571D01*
D02*
G37*
%LPC*%
G36*
X2652Y715D02*
X2652D01*
X2651Y715D01*
X2651Y715D01*
X2651Y715D01*
X2651Y715D01*
X2651Y715D01*
X2651Y715D01*
X2650Y715D01*
X2650Y715D01*
X2650Y715D01*
X2650Y714D01*
X2650Y714D01*
X2649Y714D01*
X2649Y714D01*
X2649Y714D01*
X2649Y714D01*
X2649Y714D01*
X2649Y714D01*
X2649Y714D01*
X2649Y714D01*
X2649Y713D01*
X2649Y713D01*
X2649Y713D01*
X2649Y713D01*
X2649Y713D01*
X2649Y712D01*
X2648Y712D01*
X2648Y712D01*
X2648Y711D01*
X2648Y711D01*
Y711D01*
Y711D01*
Y711D01*
X2648Y711D01*
X2648Y711D01*
X2648Y710D01*
X2648Y710D01*
X2648Y710D01*
X2649Y710D01*
X2649Y709D01*
X2649Y709D01*
X2649Y709D01*
X2649Y709D01*
X2649Y708D01*
X2649Y708D01*
X2649Y708D01*
X2649Y708D01*
X2649Y708D01*
X2649Y708D01*
X2650Y708D01*
X2650Y708D01*
X2650Y708D01*
X2650Y708D01*
X2650Y708D01*
X2650Y708D01*
X2650Y707D01*
X2651Y707D01*
X2651Y707D01*
X2651Y707D01*
X2651Y707D01*
X2652Y707D01*
X2652D01*
X2652Y707D01*
X2652Y707D01*
X2652Y707D01*
X2652Y707D01*
X2653Y707D01*
X2653Y707D01*
X2653Y708D01*
X2653Y708D01*
X2653Y708D01*
X2653Y708D01*
X2652Y708D01*
X2652Y708D01*
X2652Y708D01*
X2652Y708D01*
X2652Y709D01*
X2652D01*
X2652Y709D01*
X2652Y709D01*
X2652Y709D01*
X2652Y709D01*
X2652Y709D01*
X2653Y709D01*
X2653Y709D01*
X2653Y708D01*
X2654Y708D01*
X2654Y708D01*
X2654Y708D01*
X2654Y708D01*
X2654Y708D01*
X2654Y708D01*
X2654Y708D01*
X2654Y708D01*
X2654Y709D01*
X2654Y709D01*
X2654Y709D01*
X2655Y709D01*
X2655Y709D01*
X2655Y710D01*
X2655Y710D01*
X2655Y710D01*
X2655Y711D01*
X2655Y711D01*
Y711D01*
Y711D01*
Y711D01*
Y711D01*
X2655Y711D01*
Y712D01*
X2655Y712D01*
X2655Y712D01*
X2655Y712D01*
X2655Y712D01*
X2655Y713D01*
X2655Y713D01*
Y713D01*
X2655Y713D01*
X2654Y713D01*
X2654Y713D01*
X2654Y713D01*
X2654Y714D01*
X2654Y714D01*
X2654Y714D01*
X2654Y714D01*
X2653Y714D01*
X2653D01*
X2653Y715D01*
X2653Y715D01*
X2653Y715D01*
X2653Y715D01*
X2653Y715D01*
X2653Y715D01*
X2653Y715D01*
X2652Y715D01*
X2652Y715D01*
X2652Y715D01*
D02*
G37*
G36*
X2884Y576D02*
X2884D01*
X2884Y576D01*
X2884Y576D01*
X2884Y576D01*
X2884Y576D01*
X2883Y576D01*
X2883Y576D01*
X2883Y575D01*
X2883Y575D01*
X2883Y575D01*
X2883Y575D01*
X2883Y575D01*
X2883Y575D01*
X2883Y574D01*
X2882Y574D01*
X2882Y574D01*
Y574D01*
Y574D01*
X2882Y574D01*
X2882Y573D01*
X2882Y573D01*
X2883Y573D01*
X2883Y573D01*
X2883Y573D01*
X2883Y573D01*
X2883Y573D01*
X2883Y572D01*
X2883Y572D01*
X2883Y572D01*
X2883Y572D01*
X2883Y572D01*
X2883Y572D01*
X2883Y572D01*
X2883Y572D01*
X2884Y572D01*
X2884Y572D01*
X2884Y572D01*
X2884Y572D01*
X2884Y572D01*
X2884Y572D01*
X2884D01*
X2885Y572D01*
X2885Y572D01*
X2885Y572D01*
X2885Y572D01*
X2885Y572D01*
X2885Y572D01*
X2886Y572D01*
X2886Y572D01*
Y572D01*
X2886Y572D01*
X2886Y572D01*
X2886Y572D01*
X2886Y573D01*
X2886Y573D01*
X2886Y573D01*
X2886Y573D01*
X2886Y574D01*
Y574D01*
Y574D01*
Y574D01*
X2886Y574D01*
Y574D01*
X2886Y574D01*
X2886Y574D01*
X2886Y575D01*
X2886Y575D01*
X2886Y575D01*
X2886Y575D01*
X2886Y575D01*
X2886Y575D01*
X2885Y576D01*
X2885Y576D01*
X2885Y576D01*
X2885Y576D01*
X2885Y576D01*
X2884Y576D01*
D02*
G37*
G36*
X2660Y570D02*
X2659D01*
X2659Y570D01*
X2659Y569D01*
X2659Y569D01*
X2659Y569D01*
X2659Y569D01*
X2659Y569D01*
X2658Y569D01*
X2658Y569D01*
X2658Y569D01*
X2658Y569D01*
X2658Y569D01*
X2657Y569D01*
X2657Y569D01*
X2657Y569D01*
X2657Y568D01*
X2657Y568D01*
X2657Y568D01*
X2657Y568D01*
X2657Y568D01*
X2657Y568D01*
X2657Y568D01*
X2657Y568D01*
X2657Y567D01*
X2657Y567D01*
X2656Y567D01*
X2656Y567D01*
X2656Y566D01*
X2656Y566D01*
X2656Y566D01*
Y566D01*
Y566D01*
Y565D01*
X2656Y565D01*
X2656Y565D01*
X2656Y565D01*
X2656Y565D01*
X2656Y565D01*
X2657Y564D01*
X2657Y564D01*
X2657Y564D01*
X2657Y563D01*
X2657Y563D01*
X2657Y563D01*
X2657Y563D01*
X2657Y563D01*
X2657Y563D01*
X2657Y563D01*
X2657Y563D01*
X2657Y563D01*
X2658Y562D01*
X2658Y562D01*
X2658Y562D01*
X2658Y562D01*
X2658Y562D01*
X2658Y562D01*
X2659Y562D01*
X2659Y562D01*
X2659Y562D01*
X2659Y562D01*
X2660Y562D01*
X2660D01*
X2660Y562D01*
X2660Y562D01*
X2660Y562D01*
X2660Y562D01*
X2661Y562D01*
X2661Y562D01*
X2661Y562D01*
X2661Y562D01*
X2661Y562D01*
X2660Y562D01*
X2660Y562D01*
X2660Y562D01*
X2660Y563D01*
X2660Y563D01*
X2660Y564D01*
X2660D01*
X2660Y563D01*
X2660Y563D01*
X2660Y563D01*
X2660Y563D01*
X2660Y563D01*
X2661Y563D01*
X2661Y563D01*
X2661Y563D01*
X2661Y563D01*
X2662Y563D01*
X2662Y563D01*
X2662Y563D01*
X2662Y563D01*
X2662Y563D01*
X2662Y563D01*
X2662Y563D01*
X2662Y563D01*
X2662Y563D01*
X2662Y564D01*
X2662Y564D01*
X2663Y564D01*
X2663Y564D01*
X2663Y565D01*
X2663Y565D01*
X2663Y565D01*
X2663Y566D01*
Y566D01*
Y566D01*
Y566D01*
Y566D01*
X2663Y566D01*
Y566D01*
X2663Y566D01*
X2663Y566D01*
X2663Y567D01*
X2663Y567D01*
X2663Y567D01*
X2662Y568D01*
Y568D01*
X2662Y568D01*
X2662Y568D01*
X2662Y568D01*
X2662Y568D01*
X2662Y568D01*
X2662Y568D01*
X2662Y569D01*
X2662Y569D01*
X2661Y569D01*
X2661D01*
X2661Y569D01*
X2661Y569D01*
X2661Y569D01*
X2661Y569D01*
X2661Y569D01*
X2661Y569D01*
X2661Y569D01*
X2660Y569D01*
X2660Y570D01*
X2660Y570D01*
D02*
G37*
%LPD*%
D13*
X2594Y504D02*
Y631D01*
Y504D02*
X2716D01*
Y631D01*
X2594D02*
X2716D01*
X2586Y777D02*
X2708D01*
Y649D02*
Y777D01*
X2586Y649D02*
X2708D01*
X2586D02*
Y777D01*
X2807Y630D02*
X2937D01*
Y526D02*
Y630D01*
X2807Y526D02*
X2937D01*
X2807D02*
Y630D01*
M02*
