G04*
G04 #@! TF.GenerationSoftware,Altium Limited,Altium Designer,20.1.7 (139)*
G04*
G04 Layer_Physical_Order=1*
G04 Layer_Color=255*
%FSLAX23Y23*%
%MOIN*%
G70*
G04*
G04 #@! TF.SameCoordinates,7C998F9C-D2B3-43E1-8EDA-AE96681A2DE1*
G04*
G04*
G04 #@! TF.FilePolarity,Positive*
G04*
G01*
G75*
%ADD15C,0.010*%
%ADD19R,0.043X0.063*%
%ADD20R,0.055X0.063*%
%ADD21R,0.035X0.031*%
%ADD22R,0.035X0.028*%
%ADD23O,0.018X0.061*%
%ADD24R,0.031X0.035*%
%ADD25R,0.039X0.037*%
%ADD26R,0.028X0.035*%
%ADD27R,0.026X0.016*%
%ADD28R,0.037X0.039*%
%ADD29R,0.102X0.059*%
G04:AMPARAMS|DCode=30|XSize=75mil|YSize=126mil|CornerRadius=0mil|HoleSize=0mil|Usage=FLASHONLY|Rotation=270.000|XOffset=0mil|YOffset=0mil|HoleType=Round|Shape=Octagon|*
%AMOCTAGOND30*
4,1,8,0.063,0.019,0.063,-0.019,0.044,-0.037,-0.044,-0.037,-0.063,-0.019,-0.063,0.019,-0.044,0.037,0.044,0.037,0.063,0.019,0.0*
%
%ADD30OCTAGOND30*%

%ADD31R,0.055X0.024*%
%ADD32R,0.071X0.024*%
%ADD38R,0.035X0.016*%
%ADD55C,0.015*%
%ADD56C,0.050*%
%ADD57C,0.030*%
%ADD58C,0.020*%
%ADD59R,0.059X0.059*%
%ADD60C,0.059*%
%ADD61C,0.080*%
%ADD62R,0.059X0.059*%
%ADD63C,0.120*%
%ADD64C,0.050*%
%ADD65C,0.096*%
D15*
X429Y382D02*
Y453D01*
X435Y459D01*
X460D01*
X367Y376D02*
Y446D01*
X378Y365D02*
X412D01*
X343Y470D02*
X367Y446D01*
Y376D02*
X378Y365D01*
X343Y470D02*
Y537D01*
X412Y365D02*
X429Y382D01*
X304Y926D02*
Y993D01*
Y926D02*
X342Y888D01*
X338Y280D02*
X342Y285D01*
X2390Y767D02*
X2412Y789D01*
X2384Y761D02*
X2390Y766D01*
Y767D01*
X2384Y737D02*
Y761D01*
X2444Y789D02*
X2493Y740D01*
X2412Y789D02*
X2444D01*
X2616Y457D02*
Y530D01*
Y457D02*
X2628Y445D01*
Y416D02*
Y445D01*
X2403Y377D02*
X2431D01*
X2498Y444D01*
Y489D01*
X2614Y605D01*
X2616D01*
X2333Y530D02*
X2339Y524D01*
Y382D02*
Y524D01*
Y382D02*
X2343Y377D01*
X2333Y530D02*
Y554D01*
X2116Y799D02*
X2306D01*
X2307Y800D01*
X2116Y799D02*
X2116Y799D01*
X2410Y713D02*
Y737D01*
X2404Y708D02*
X2410Y713D01*
X2265Y651D02*
X2348D01*
X2404Y707D02*
Y708D01*
X2348Y651D02*
X2404Y707D01*
X2360Y498D02*
Y552D01*
Y498D02*
X2399Y459D01*
X2935Y478D02*
X2937D01*
X2948Y488D01*
Y699D01*
X2679Y649D02*
X2829Y799D01*
X2580Y649D02*
X2679D01*
X2549Y618D02*
X2580Y649D01*
X2663Y822D02*
X2671Y814D01*
X2608Y750D02*
X2618Y761D01*
X2634D02*
X2663Y789D01*
X2618Y761D02*
X2634D01*
X2805Y440D02*
Y538D01*
X2816Y550D02*
X2826D01*
X2805Y538D02*
X2816Y550D01*
X2826D02*
X2829Y552D01*
X2740Y623D02*
X2796D01*
X2172Y718D02*
X2203D01*
X2875Y450D02*
Y547D01*
X2903Y422D02*
X2935D01*
X2875Y450D02*
X2903Y422D01*
X2240Y514D02*
X2328Y602D01*
X2238Y514D02*
X2240D01*
X2728Y510D02*
X2796Y578D01*
X2728Y456D02*
Y510D01*
X2222Y593D02*
X2293D01*
X2410Y554D02*
Y567D01*
X2924Y830D02*
X2947Y807D01*
X2881Y869D02*
X2921Y830D01*
X2947Y803D02*
Y807D01*
X2921Y830D02*
X2924D01*
X2383Y869D02*
X2881D01*
X2360Y763D02*
X2419Y822D01*
X2603D01*
X2922Y488D02*
Y515D01*
Y488D02*
X2927Y483D01*
X2931D01*
X2915Y522D02*
X2922Y515D01*
X2915Y522D02*
Y552D01*
X2380Y816D02*
Y860D01*
X2156Y864D02*
X2584Y1292D01*
X2257Y719D02*
Y768D01*
X2493Y671D02*
Y740D01*
Y671D02*
X2603D01*
X2448Y571D02*
X2489Y611D01*
X2413Y571D02*
X2448D01*
X2410Y567D02*
X2413Y571D01*
X2259Y717D02*
X2329D01*
X2257Y719D02*
X2259Y717D01*
X2829Y799D02*
Y803D01*
X2358Y554D02*
X2360Y552D01*
X2358Y554D02*
X2359Y554D01*
Y737D02*
X2360Y738D01*
Y763D01*
X2948Y699D02*
X2954Y705D01*
X2796Y578D02*
X2829D01*
X2328Y602D02*
X2378D01*
X2384Y596D01*
Y554D02*
Y596D01*
X2544Y728D02*
X2548Y724D01*
X2602D01*
X2613Y713D01*
X2686D01*
X2829Y578D02*
X2832Y575D01*
X2847D01*
X2875Y547D01*
X2796Y623D02*
X2820Y647D01*
Y705D01*
X2257Y768D02*
X2268Y779D01*
X2268D01*
X2293Y593D02*
X2330Y630D01*
X2376D01*
X2409Y597D01*
Y571D02*
Y597D01*
X2334Y722D02*
Y770D01*
X2380Y816D01*
X2603Y671D02*
X2608Y676D01*
X2489Y611D02*
X2493D01*
X2329Y717D02*
X2334Y722D01*
X2947Y803D02*
X2949Y801D01*
Y710D02*
Y801D01*
Y710D02*
X2954Y705D01*
X2202Y719D02*
X2203Y718D01*
X2202Y719D02*
Y766D01*
X2158Y924D02*
X2530Y1295D01*
X1991Y924D02*
X2158D01*
X2116Y982D02*
X2127D01*
X2380Y860D02*
X2383Y863D01*
X2166Y712D02*
X2172Y718D01*
X2166Y649D02*
Y712D01*
Y649D02*
X2222Y593D01*
X2805Y440D02*
X2805Y440D01*
X2663Y789D02*
Y822D01*
X2617Y1098D02*
X2861Y1342D01*
Y1404D01*
X2617Y1037D02*
Y1098D01*
X2549Y1453D02*
X2678D01*
X2725Y1406D01*
X2530Y1433D02*
X2549Y1453D01*
X2530Y1295D02*
Y1433D01*
X2584Y1407D02*
X2585Y1408D01*
X2584Y1292D02*
Y1407D01*
X2013Y1338D02*
X2171Y1179D01*
X2081Y1320D02*
X2126D01*
X2227Y1219D01*
X2171Y1179D02*
X2352D01*
X1546Y1338D02*
X2013D01*
X1931Y1393D02*
X2008D01*
X2081Y1320D01*
X2227Y1219D02*
X2235D01*
X1807Y669D02*
X1962Y514D01*
X1807Y669D02*
Y785D01*
X1865Y1029D02*
Y1101D01*
X2046Y743D02*
X2088Y701D01*
Y288D02*
Y701D01*
X2604Y568D02*
X2676D01*
X2570Y533D02*
X2604Y568D01*
X2570Y491D02*
Y533D01*
X2538Y459D02*
X2570Y491D01*
X2624Y416D02*
X2628D01*
X2587Y378D02*
X2619Y410D01*
X2624Y416D01*
X2672Y417D02*
X2703Y448D01*
X2672Y396D02*
Y417D01*
X2632Y356D02*
X2672Y396D01*
X2628Y356D02*
X2632D01*
X2728Y445D02*
Y456D01*
X2720Y448D02*
X2728Y456D01*
X2703Y448D02*
X2720D01*
X1455Y1247D02*
X1546Y1338D01*
X2707Y380D02*
Y425D01*
X2728Y445D01*
X2587Y305D02*
Y378D01*
X1907Y1313D02*
X1946D01*
X1629Y1266D02*
X1683Y1320D01*
X1900D01*
X1907Y1313D01*
X1946D02*
X2001Y1259D01*
X1629Y1140D02*
Y1266D01*
X2378Y1205D02*
X2383D01*
X2352Y1179D02*
X2378Y1205D01*
X1910Y1271D02*
X1919D01*
X1886Y1295D02*
X1910Y1271D01*
X1689Y1295D02*
X1886D01*
X1647Y1253D02*
X1689Y1295D01*
X1647Y1070D02*
Y1253D01*
X1706Y1248D02*
Y1255D01*
Y1248D02*
X1731Y1223D01*
Y1160D02*
Y1223D01*
X402Y1025D02*
X541D01*
X338Y1219D02*
Y1219D01*
X311Y1219D02*
X338D01*
X336Y282D02*
X338Y280D01*
X329Y289D02*
X336Y282D01*
X1727Y1080D02*
Y1156D01*
Y1080D02*
X1735Y1072D01*
Y1061D02*
Y1072D01*
X1727Y1156D02*
X1731Y1160D01*
X1641Y1064D02*
X1647Y1070D01*
X1794Y1160D02*
Y1245D01*
Y1160D02*
X1795Y1161D01*
X1794Y1245D02*
X1798Y1249D01*
X1795Y1161D02*
X1865D01*
X1380Y1247D02*
X1455D01*
X2088Y288D02*
X2286Y90D01*
X2649D02*
X2896Y337D01*
X2286Y90D02*
X2649D01*
X1992Y623D02*
Y778D01*
Y623D02*
X2037Y578D01*
X2805Y380D02*
X2853D01*
X2896Y337D01*
X2763Y380D02*
X2763Y380D01*
X2805D01*
X347Y542D02*
Y604D01*
X343Y537D02*
X344Y539D01*
X347Y542D01*
X342Y888D02*
X353D01*
X1722Y793D02*
X1737Y808D01*
X535Y433D02*
X843D01*
X1451Y863D02*
Y1187D01*
X401Y404D02*
X401Y404D01*
X402Y476D02*
X410Y485D01*
X401Y476D02*
X402Y476D01*
X410Y485D02*
X460D01*
X402Y534D02*
X407Y539D01*
X401Y404D02*
Y476D01*
X402Y476D02*
Y534D01*
X460Y433D02*
X535D01*
X2235Y1219D02*
Y1219D01*
X2221Y1205D02*
X2235Y1219D01*
X1816Y968D02*
X1816D01*
X1821Y964D01*
X2097D01*
X1992Y1003D02*
Y1012D01*
X2097Y964D02*
X2116Y982D01*
X2132Y1151D02*
Y1162D01*
X1992Y1012D02*
X2132Y1151D01*
X1714Y942D02*
X1722D01*
X1635Y863D02*
X1714Y942D01*
X1601Y1112D02*
X1629Y1140D01*
X1203Y793D02*
X1722D01*
X843Y433D02*
X1203Y793D01*
X2001Y1259D02*
X2001D01*
X1336Y109D02*
X1338Y107D01*
X1491Y227D02*
X1492Y228D01*
Y316D01*
X1333Y231D02*
X1336Y227D01*
X1333Y231D02*
Y314D01*
X1184Y227D02*
X1186Y229D01*
Y313D01*
X1380Y1247D02*
X1380Y1247D01*
X1285Y1247D02*
X1380D01*
X1283Y1249D02*
X1285Y1247D01*
X1380Y1310D02*
Y1311D01*
X1292Y1399D02*
X1380Y1311D01*
X1292Y1399D02*
Y1417D01*
X1283Y1427D02*
X1292Y1417D01*
X643Y1084D02*
X682Y1045D01*
X549Y1084D02*
X643D01*
X549Y966D02*
X658D01*
X682Y990D01*
X684D01*
X682Y1045D02*
X684D01*
D19*
X2954Y705D02*
D03*
X2820D02*
D03*
D20*
X2829Y803D02*
D03*
X2947D02*
D03*
D21*
X2694Y568D02*
D03*
X2616Y530D02*
D03*
Y605D02*
D03*
X2608Y750D02*
D03*
Y676D02*
D03*
X2686Y713D02*
D03*
X2935Y478D02*
D03*
Y422D02*
D03*
X684Y990D02*
D03*
Y1045D02*
D03*
X304Y993D02*
D03*
Y1048D02*
D03*
D22*
X2493Y671D02*
D03*
Y611D02*
D03*
X1865Y1101D02*
D03*
Y1161D02*
D03*
X2628Y416D02*
D03*
Y356D02*
D03*
X2805Y440D02*
D03*
Y380D02*
D03*
X1451Y1187D02*
D03*
Y1247D02*
D03*
D23*
X2333Y554D02*
D03*
X2359D02*
D03*
X2384D02*
D03*
X2410D02*
D03*
X2333Y737D02*
D03*
X2359D02*
D03*
X2384D02*
D03*
X2410D02*
D03*
D24*
X2203Y718D02*
D03*
X2258D02*
D03*
X2202Y766D02*
D03*
X2257D02*
D03*
X2763Y380D02*
D03*
X2707D02*
D03*
D25*
X1794Y1160D02*
D03*
X1731D02*
D03*
X344Y539D02*
D03*
X407D02*
D03*
D26*
X2603Y822D02*
D03*
X2663D02*
D03*
X2403Y377D02*
D03*
X2343D02*
D03*
X402Y474D02*
D03*
X343D02*
D03*
X342Y404D02*
D03*
X401D02*
D03*
D27*
X460Y485D02*
D03*
Y459D02*
D03*
Y433D02*
D03*
X535D02*
D03*
Y485D02*
D03*
D28*
X1380Y1310D02*
D03*
Y1247D02*
D03*
D29*
X1491Y109D02*
D03*
Y227D02*
D03*
X1336Y109D02*
D03*
Y227D02*
D03*
X1184Y109D02*
D03*
Y227D02*
D03*
D30*
X443Y1025D02*
D03*
D31*
X549Y1084D02*
D03*
Y966D02*
D03*
D32*
X541Y1025D02*
D03*
D38*
X2829Y604D02*
D03*
Y578D02*
D03*
Y552D02*
D03*
X2915D02*
D03*
Y604D02*
D03*
D55*
X342Y285D02*
Y408D01*
X342Y1048D02*
X365Y1025D01*
X304Y1048D02*
X342D01*
X365Y1025D02*
X402D01*
X338Y1127D02*
Y1219D01*
Y280D02*
X506Y112D01*
X700D01*
X267Y483D02*
X342Y408D01*
X267Y483D02*
Y630D01*
X303Y666D01*
X405D01*
X535Y537D01*
X304Y1048D02*
Y1093D01*
X338Y1127D01*
X535Y485D02*
Y537D01*
D56*
X2156Y863D02*
X2246D01*
X1636D02*
X2156D01*
X2246D02*
X2383D01*
X1131Y1045D02*
X1313Y863D01*
X684Y1045D02*
X1131D01*
X1313Y863D02*
X1451D01*
X1636D01*
X1635Y863D02*
X1636Y863D01*
D57*
X162Y390D02*
X261Y291D01*
X162Y1032D02*
X338Y1208D01*
X162Y390D02*
Y1032D01*
X338Y1208D02*
Y1219D01*
X327Y291D02*
X329Y289D01*
X261Y291D02*
X327D01*
D58*
X1338Y36D02*
Y107D01*
X1336Y109D02*
X1491D01*
X1184D02*
X1336D01*
D59*
X2585Y1408D02*
D03*
X1798Y1249D02*
D03*
X1283D02*
D03*
D60*
X2485Y1408D02*
D03*
X2385D02*
D03*
X2285D02*
D03*
X2185D02*
D03*
X2085D02*
D03*
X3006Y1204D02*
D03*
X1542Y1249D02*
D03*
Y1427D02*
D03*
X1798D02*
D03*
X1027Y1249D02*
D03*
Y1427D02*
D03*
X1283D02*
D03*
D61*
X2861Y1404D02*
D03*
X2725Y1406D02*
D03*
X1931Y1393D02*
D03*
X2286Y90D02*
D03*
X700Y112D02*
D03*
D62*
X3006Y1104D02*
D03*
D63*
X338Y1219D02*
D03*
Y280D02*
D03*
D64*
X2307Y800D02*
D03*
X2544Y728D02*
D03*
X2127Y982D02*
D03*
X2238Y514D02*
D03*
X1962D02*
D03*
X2116Y799D02*
D03*
X2383Y863D02*
D03*
X2399Y459D02*
D03*
X2046Y743D02*
D03*
X2265Y651D02*
D03*
X2549Y618D02*
D03*
X2740Y623D02*
D03*
X2538Y459D02*
D03*
X2728Y456D02*
D03*
X2587Y305D02*
D03*
X1706Y1255D02*
D03*
X1735Y1061D02*
D03*
X2037Y578D02*
D03*
X1992Y778D02*
D03*
X2222Y593D02*
D03*
X347Y604D02*
D03*
X353Y888D02*
D03*
X2617Y1037D02*
D03*
X2383Y1205D02*
D03*
X2235Y1219D02*
D03*
X1816Y968D02*
D03*
X1861Y1029D02*
D03*
X1992Y1003D02*
D03*
X1991Y924D02*
D03*
X1451Y863D02*
D03*
X2132Y1162D02*
D03*
X1722Y942D02*
D03*
X1641Y1064D02*
D03*
X1739Y791D02*
D03*
X1807Y785D02*
D03*
X1601Y1112D02*
D03*
X1919Y1271D02*
D03*
X2001Y1259D02*
D03*
X1338Y36D02*
D03*
X1186Y313D02*
D03*
X1333Y314D02*
D03*
X1492Y316D02*
D03*
X2896Y337D02*
D03*
X624Y965D02*
D03*
D65*
X3025Y1400D02*
D03*
X860D02*
D03*
Y100D02*
D03*
X3025D02*
D03*
M02*
